<svg width="44" height="44" viewBox="0 0 44 44" fill="none" xmlns="http://www.w3.org/2000/svg">
<g clip-path="url(#clip0_2720_2094)">
<path d="M43.454 17.1095C43.418 16.9515 43.3381 16.8067 43.2236 16.6921L27.3089 0.777422C27.1942 0.662781 27.0495 0.582945 26.8916 0.547023C25.2961 0.184711 23.6504 0.000976562 22 0.000976562C16.1236 0.000976562 10.5989 2.28932 6.44359 6.44466C2.28843 10.5999 0 16.1246 0 22.001C0 27.8774 2.28843 33.402 6.44359 37.5573C10.5989 41.7126 16.1236 44.001 22 44.001C27.8764 44.001 33.4011 41.7126 37.5564 37.5573C41.7116 33.402 44 27.8774 44 22.001C44 20.3507 43.8163 18.705 43.454 17.1095ZM40.6115 16.5107C38.9535 17.8634 36.8978 18.6265 34.7366 18.6767C34.6602 18.6785 34.5848 18.6794 34.5089 18.6794C29.2864 18.679 24.9773 14.493 24.8552 9.24459C24.801 6.91594 25.565 4.70098 27.021 2.92019L40.6115 16.5107ZM38.0045 22.001C38.0045 30.8259 30.8249 38.0055 22 38.0055C13.1751 38.0055 5.99552 30.8259 5.99552 22.001C5.99552 13.1761 13.1751 5.99649 22 5.99649C22.5063 5.99649 23.0138 6.0203 23.5171 6.06756C23.2653 7.0115 23.1351 7.99385 23.1337 8.99605C22.7569 8.96348 22.3778 8.94707 21.9999 8.94707C14.802 8.94707 8.94601 14.803 8.94601 22.001C8.94601 29.1989 14.802 35.0549 22 35.0549C29.198 35.0549 35.0539 29.1989 35.0539 22.001C35.0539 21.4622 35.0206 20.9229 34.9546 20.3895C35.9528 20.3508 36.9306 20.1831 37.867 19.8948C37.9583 20.5908 38.0045 21.2964 38.0045 22.001ZM33.2114 20.3244C33.2936 20.8773 33.3352 21.4394 33.3352 22.001C33.3352 28.2512 28.2502 33.3361 22 33.3361C15.7498 33.3361 10.6648 28.2512 10.6648 22.001C10.6648 15.7507 15.7498 10.6658 22 10.6658C22.4216 10.6658 22.8449 10.6894 23.2632 10.7359C24.0315 15.7967 28.1341 19.7439 33.2114 20.3244ZM22 42.2822C10.8169 42.2822 1.71875 33.1841 1.71875 22.001C1.71875 10.8178 10.8169 1.71973 22 1.71973C23.1878 1.71973 24.3726 1.82277 25.5345 2.0267C24.9578 2.7637 24.4793 3.56051 24.1053 4.40166C23.409 4.31934 22.7032 4.27774 21.9999 4.27774C12.2274 4.27774 4.27677 12.2283 4.27677 22.001C4.27677 31.7736 12.2274 39.7242 22 39.7242C31.7726 39.7242 39.7232 31.7736 39.7232 22.001C39.7232 21.0776 39.6516 20.1525 39.5099 19.2448C40.3373 18.84 41.1168 18.3334 41.8312 17.7321C42.1299 19.1272 42.2812 20.562 42.2812 22.001C42.2812 33.1841 33.1831 42.2822 22 42.2822Z" fill="#929292"/>
<path fill-rule="evenodd" clip-rule="evenodd" d="M21.25 23.1758C21.25 22.8181 21.0366 22.5023 20.8173 22.2197C20.7947 22.1905 20.7728 22.1603 20.7519 22.1289L20 21.001L19.5547 20.333C18.8901 19.3362 19.6047 18.001 20.8028 18.001H23.1972C24.3953 18.001 25.1098 19.3362 24.4453 20.333L24 21.001L23.2481 22.1289C23.2271 22.1603 23.2053 22.1905 23.1827 22.2197C22.9634 22.5023 22.75 22.8181 22.75 23.1758V23.7261C22.75 23.8314 22.7661 23.9365 22.8011 24.0357C23.1687 25.0769 23.6765 25.6487 24.1721 25.9449C24.7069 26.2646 25.3234 26.3209 25.9441 26.1743C26.5725 26.026 27.1711 25.6752 27.6063 25.2387C28.0524 24.7912 28.25 24.3358 28.25 24.001C28.25 23.5868 28.5858 23.251 29 23.251C29.4142 23.251 29.75 23.5868 29.75 24.001C29.75 24.8723 29.2781 25.6863 28.6686 26.2977C28.0481 26.9201 27.205 27.4179 26.2888 27.6342C25.365 27.8523 24.3343 27.7894 23.4025 27.2325C23.283 27.161 23.1666 27.0824 23.0537 26.9965C22.4684 26.5514 21.5316 26.5514 20.9463 26.9965C20.8334 27.0824 20.717 27.161 20.5975 27.2325C19.6657 27.7894 18.635 27.8523 17.7112 27.6342C16.795 27.4179 15.9519 26.9201 15.3314 26.2977C14.7219 25.6863 14.25 24.8723 14.25 24.001C14.25 23.5868 14.5858 23.251 15 23.251C15.4142 23.251 15.75 23.5868 15.75 24.001C15.75 24.3358 15.9476 24.7912 16.3937 25.2387C16.8289 25.6752 17.4275 26.026 18.0559 26.1743C18.6766 26.3209 19.2931 26.2646 19.8279 25.9449C20.3235 25.6487 20.8313 25.0769 21.1989 24.0357C21.2339 23.9365 21.25 23.8314 21.25 23.7261V23.1758Z" fill="#929292"/>
</g>
<defs>
<clipPath id="clip0_2720_2094">
<rect width="44" height="44" fill="white" transform="translate(0 0.000976562)"/>
</clipPath>
</defs>
</svg>
