<svg width="16" height="16" viewBox="0 0 16 16" fill="none" xmlns="http://www.w3.org/2000/svg">
<path fill-rule="evenodd" clip-rule="evenodd" d="M1 1H6.33333V6.33333H1V1ZM0 0H1H6.33333H7.33333V1V6.33333V7.33333H6.33333H1H0V6.33333V1V0ZM1 9.66667H6.33333V15H1V9.66667ZM0 8.66667H1H6.33333H7.33333V9.66667V15V16H6.33333H1H0V15V9.66667V8.66667ZM15 1H9.66667V6.33333H15V1ZM9.66667 0H8.66667V1V6.33333V7.33333H9.66667H15H16V6.33333V1V0H15H9.66667ZM9.66667 9.66667H15V15H9.66667V9.66667ZM8.66667 8.66667H9.66667H15H16V9.66667V15V16H15H9.66667H8.66667V15V9.66667V8.66667Z" fill="#D4D4D4"/>
</svg>
