<svg width="16" height="16" viewBox="0 0 16 16" fill="none" xmlns="http://www.w3.org/2000/svg">
<path d="M11.35 -0.000976562H4.65C2.1 -0.000976562 0 2.09902 0 4.64902V11.349C0 13.899 2.1 15.999 4.65 15.999H11.35C13.9 15.999 16 13.899 16 11.349V4.64902C16 2.09902 13.9 -0.000976562 11.35 -0.000976562ZM14.75 11.349C14.75 13.199 13.25 14.749 11.35 14.749H4.65C2.8 14.749 1.25 13.249 1.25 11.349V4.64902C1.25 2.79902 2.75 1.24902 4.65 1.24902H11.35C13.2 1.24902 14.75 2.74902 14.75 4.64902V11.349ZM8 3.69902C5.6 3.69902 3.7 5.64902 3.7 7.99902C3.7 10.399 5.65 12.299 8 12.299C10.4 12.299 12.3 10.349 12.3 7.99902C12.3 5.59902 10.4 3.69902 8 3.69902ZM8 11.049C6.3 11.049 4.95 9.69902 4.95 7.99902C4.95 6.29902 6.3 4.94902 8 4.94902C9.7 4.94902 11.05 6.29902 11.05 7.99902C11.05 9.69902 9.7 11.049 8 11.049ZM12.4 2.99902C12.05 2.99902 11.75 3.29902 11.75 3.59902C11.75 3.94902 12.05 4.24902 12.4 4.24902C12.75 4.24902 13 3.94902 13 3.59902C13 3.29902 12.7 2.99902 12.4 2.99902Z" fill="#FFDF65"/>
</svg>
