<svg width="47" height="65" viewBox="0 0 47 65" fill="none" xmlns="http://www.w3.org/2000/svg">
<path fill-rule="evenodd" clip-rule="evenodd" d="M25.2049 22.2284C25.0073 27.7624 26.3951 33.2387 29.208 38.025C29.4031 38.3569 29.5851 38.6949 29.7538 39.0381L31.2464 38.7056C31.6118 38.6242 31.9574 38.4723 32.2634 38.2585C32.5694 38.0448 32.8299 37.7734 33.0298 37.4598C33.2297 37.1463 33.3652 36.7968 33.4286 36.4314C33.4919 36.066 33.4819 35.6918 33.3989 35.3302C33.316 34.9686 33.1619 34.6268 32.9454 34.3242C32.7289 34.0217 32.4542 33.7644 32.1372 33.5671C31.8201 33.3697 31.4668 33.2362 31.0976 33.1742C30.7283 33.1122 30.3504 33.1229 29.9853 33.2057L31.413 21.1992C31.7464 18.3953 32.7537 15.7113 34.3506 13.3722C35.9474 11.033 38.0873 9.1068 40.5909 7.75488V48.6443H31.0722L31.0659 48.6777C30.3747 52.3342 28.379 55.623 25.4427 57.9444C24.6394 58.4349 23.9718 59.1153 23.4999 59.9245C23.028 59.1153 22.3604 58.4349 21.5571 57.9444C18.6208 55.623 16.6251 52.3342 15.9339 48.6777C15.9318 48.6665 15.9297 48.6554 15.9276 48.6443H6.4082V7.75488C8.91179 9.1068 11.0516 11.033 12.6485 13.3722C14.2453 15.7113 15.2527 18.3953 15.5861 21.1992L17.0138 33.2057C16.6487 33.1229 16.2707 33.1122 15.9015 33.1742C15.5322 33.2362 15.179 33.3697 14.8619 33.5671C14.5448 33.7644 14.2702 34.0217 14.0536 34.3242C13.8371 34.6268 13.683 34.9686 13.6001 35.3302C13.5172 35.6918 13.5071 36.066 13.5705 36.4314C13.6338 36.7968 13.7693 37.1463 13.9693 37.4598C14.1692 37.7734 14.4296 38.0448 14.7356 38.2585C15.0416 38.4723 15.3872 38.6242 15.7526 38.7056L17.2459 39.0383C17.4147 38.695 17.5967 38.357 17.7918 38.025C20.6047 33.2387 21.9925 27.7624 21.7949 22.2284L21.3393 9.46515C21.2614 7.28388 22.0352 5.15671 23.4999 3.52539C24.9646 5.15671 25.7384 7.28388 25.6605 9.46515L25.2049 22.2284ZM16.23 41.7024L15.1273 41.4568C13.9761 41.2004 12.9337 40.5963 12.1441 39.7282C11.5283 39.0511 11.09 38.2393 10.8618 37.3644H9.25669V45.8243H15.6665C15.6666 44.43 15.8566 43.0434 16.23 41.7024ZM18.515 45.8243C18.5151 44.6371 18.6834 43.4584 19.0129 42.3223L19.2959 42.3853C20.0847 42.561 20.7896 42.9973 21.2946 43.6223C21.7997 44.2473 22.0749 45.0239 22.0749 45.8243H18.515ZM18.8354 48.6443C19.3491 50.8757 20.4651 52.9369 22.0756 54.6018V48.6443H18.8354ZM23.4995 41.8368C22.6341 40.7764 21.4478 40.0213 20.1174 39.6811C20.162 39.6014 20.2075 39.522 20.2538 39.4431C21.6651 37.0419 22.7562 34.4698 23.4999 31.791C24.2436 34.4698 25.3347 37.0419 26.7459 39.4431C26.7923 39.522 26.8377 39.6012 26.8823 39.6809C25.5517 40.0211 24.3651 40.7762 23.4995 41.8368ZM9.25669 34.5445V13.6107C11.1883 15.8449 12.4061 18.5968 12.7557 21.5172L13.8775 30.8868C12.8172 31.3995 11.9439 32.2256 11.3782 33.2508C11.1515 33.6617 10.9787 34.0963 10.8618 34.5445H9.25669ZM24.9241 54.6018V48.6443H28.1643C27.6507 50.8757 26.5347 52.9369 24.9241 54.6018ZM24.9242 45.8243H28.4848C28.4847 44.6371 28.3163 43.4583 27.9868 42.3222L27.7032 42.3853C26.9144 42.561 26.2095 42.9973 25.7044 43.6223C25.1994 44.2473 24.9242 45.0239 24.9242 45.8243ZM30.7697 41.7023C31.1432 43.0433 31.3332 44.4299 31.3333 45.8243H37.7424V37.3644H36.1372C35.909 38.2393 35.4707 39.0511 34.8549 39.7282C34.0654 40.5963 33.023 41.2004 31.8717 41.4568L30.7697 41.7023ZM37.7424 13.6107V34.5445H36.1372C36.0204 34.0963 35.8476 33.6617 35.6209 33.2508C35.0552 32.2256 34.1819 31.3995 33.1216 30.8868L34.2433 21.5172C34.593 18.5968 35.8108 15.8449 37.7424 13.6107Z" fill="url(#paint0_linear_2979_6809)"/>
<defs>
<linearGradient id="paint0_linear_2979_6809" x1="10.9937" y1="59.9247" x2="64.4346" y2="53.0388" gradientUnits="userSpaceOnUse">
<stop stop-color="#3B3B3B"/>
<stop offset="1" stop-color="#A0FF65"/>
</linearGradient>
</defs>
</svg>