<svg width="6" height="6" viewBox="0 0 6 6" fill="none" xmlns="http://www.w3.org/2000/svg">
<path fill-rule="evenodd" clip-rule="evenodd" d="M1.11535 0.485843C0.941787 0.312276 0.66038 0.312276 0.486814 0.485843C0.313247 0.659409 0.313247 0.940815 0.486814 1.11438L1.66532 2.29289C2.05585 2.68342 2.05585 3.31658 1.66532 3.70711L0.486814 4.88562C0.313247 5.05918 0.313247 5.34059 0.486814 5.51416C0.66038 5.68772 0.941787 5.68772 1.11535 5.51416L2.29386 4.33565C2.68439 3.94512 3.31755 3.94512 3.70808 4.33565L4.88659 5.51416C5.06015 5.68772 5.34156 5.68772 5.51513 5.51416C5.68869 5.34059 5.68869 5.05918 5.51513 4.88562L4.33662 3.70711C3.94609 3.31658 3.94609 2.68342 4.33662 2.29289L5.51513 1.11438C5.68869 0.940816 5.68869 0.659409 5.51513 0.485843C5.34156 0.312276 5.06016 0.312277 4.88659 0.485843L3.70808 1.66435C3.31755 2.05488 2.68439 2.05488 2.29386 1.66435L1.11535 0.485843Z" fill="#D4D4D4"/>
</svg>
