<svg width="34" height="44" viewBox="0 0 34 44" fill="none" xmlns="http://www.w3.org/2000/svg">
<path fill-rule="evenodd" clip-rule="evenodd" d="M7.72623 3.32508L7.72626 3.32506L7.72639 3.32502L7.72659 3.32494L7.72703 3.32477C7.92363 3.25048 8.11911 3.1766 8.31228 3.1046C9.12162 2.80293 9.9201 2.52222 10.7211 2.31778C12.3173 1.91042 13.841 1.82747 15.3315 2.45631C16.4347 2.92172 17.1764 3.87573 17.6524 4.88609C17.7672 5.12962 17.8635 5.37031 17.9433 5.59899C12.6578 6.11968 9.69588 9.70107 8.20146 13.1337C7.4905 14.7667 7.46623 16.6782 7.67019 18.3194C7.8272 19.5828 8.12886 20.7589 8.42653 21.6482C6.1534 22.6873 4.56716 24.9107 4.56716 27.5147C4.56716 30.9966 7.40309 33.7979 10.925 33.9976C11.4918 35.6745 12.4231 37.8839 13.627 39.7831C14.3169 40.8714 15.123 41.9008 16.0369 42.6682C16.9496 43.4346 18.0442 44 19.2836 44C20.5256 44 21.6115 43.4324 22.5128 42.6629C23.4138 41.8937 24.2032 40.8631 24.8806 39.777C26.0699 37.8702 26.9992 35.6523 27.6138 33.9991C31.1489 33.8129 34 31.006 34 27.5147C34 24.9107 32.4138 22.6873 30.1407 21.6482C30.4383 20.759 30.74 19.5828 30.897 18.3194C31.101 16.6782 31.0767 14.7667 30.3657 13.1337C28.8183 9.57921 25.6972 5.86522 20.0522 5.55525C19.9241 5.09149 19.7415 4.57081 19.4938 4.04527C18.9042 2.794 17.8698 1.35317 16.1311 0.619661C14.0694 -0.250163 12.0409 -0.0833298 10.2117 0.38352C9.30005 0.616194 8.41756 0.928704 7.5935 1.23586C7.3788 1.31589 7.16973 1.39488 6.96518 1.47217L6.96479 1.47232L6.96465 1.47237C6.36746 1.69801 5.80879 1.9091 5.26114 2.08881C2.93844 2.85098 0.747321 3.03664 0 3.03664V5.03486C0.944222 5.03486 3.3541 4.82088 5.90304 3.98448C6.49775 3.78933 7.11734 3.55518 7.72623 3.32508ZM28.1919 21.0848C28.4559 20.309 28.7383 19.2339 28.8822 18.0768C29.0673 16.5874 29.0069 15.0853 28.5 13.9208C27.0715 10.6397 24.315 7.53262 19.2836 7.53262C14.2522 7.53262 11.4956 10.6397 10.0672 13.9208C9.56023 15.0853 9.49993 16.5874 9.68502 18.0768C9.82883 19.2339 10.1113 20.309 10.3753 21.0848C10.6867 21.0424 11.0047 21.0206 11.3276 21.0206C14.2545 21.0206 16.7649 22.811 17.7 25.3415L15.7925 26.0246C15.1502 24.2865 13.4041 23.0188 11.3276 23.0188C8.68718 23.0188 6.59701 25.0587 6.59701 27.5147C6.59701 29.9708 8.68718 32.0107 11.3276 32.0107C11.7401 32.0107 12.1387 31.9608 12.5178 31.8675L13.0102 33.806L13.0045 33.8074C13.5407 35.3049 14.3499 37.149 15.3491 38.7253C15.9787 39.7185 16.6569 40.5625 17.3542 41.148C18.0527 41.7345 18.6961 42.0018 19.2836 42.0018C19.8684 42.0018 20.4995 41.7368 21.1829 41.1533C21.8667 40.5695 22.5299 39.7269 23.1508 38.7315C24.1934 37.0599 25.0386 35.0859 25.6292 33.5216L26.0493 31.8675C26.4284 31.9608 26.8271 32.0107 27.2395 32.0107C29.88 32.0107 31.9701 29.9708 31.9701 27.5147C31.9701 25.0587 29.88 23.0188 27.2395 23.0188C25.1631 23.0188 23.417 24.2865 22.7747 26.0246L20.8671 25.3415C21.8023 22.811 24.3127 21.0206 27.2395 21.0206C27.5625 21.0206 27.8805 21.0424 28.1919 21.0848Z" fill="#929292"/>
</svg>
