<svg width="123" height="22" viewBox="0 0 123 22" fill="none" xmlns="http://www.w3.org/2000/svg">
<path d="M120.402 0.962892C119.852 0.962429 119.315 1.12497 118.858 1.42995C118.401 1.73493 118.044 2.16864 117.834 2.67619C117.623 3.18374 117.568 3.74232 117.675 4.28125C117.782 4.82018 118.047 5.31524 118.435 5.70377C118.824 6.0923 119.319 6.35685 119.858 6.46393C120.397 6.57101 120.955 6.51582 121.463 6.30533C121.971 6.09485 122.404 5.73853 122.709 5.28147C123.014 4.82442 123.177 4.28716 123.176 3.7377C123.175 3.00215 122.882 2.29709 122.362 1.77698C121.842 1.25687 121.137 0.964128 120.402 0.962892ZM122.791 3.7377C122.792 4.21097 122.652 4.67388 122.39 5.06782C122.127 5.46175 121.754 5.76899 121.317 5.95064C120.88 6.13229 120.399 6.18018 119.935 6.08825C119.47 5.99631 119.044 5.76869 118.709 5.43419C118.374 5.0997 118.146 4.67338 118.054 4.2092C117.961 3.74503 118.009 3.26388 118.19 2.82667C118.371 2.38947 118.678 2.01586 119.072 1.75316C119.465 1.49046 119.928 1.35048 120.402 1.35094C121.035 1.35156 121.642 1.60315 122.089 2.05055C122.537 2.49795 122.789 3.10467 122.791 3.7377Z" fill="white"/>
<path d="M121.255 3.80825C121.358 3.70905 121.44 3.58902 121.494 3.45607C121.548 3.32311 121.573 3.18023 121.568 3.03682C121.574 2.89385 121.548 2.75135 121.494 2.61904C121.439 2.48672 121.357 2.3677 121.252 2.27007C121.006 2.06691 120.692 1.96496 120.373 1.98487H119.205V5.49137H119.756V4.08877H120.423L121.161 5.49137H121.778L120.974 3.99526C121.078 3.94999 121.173 3.88667 121.255 3.80825ZM119.763 2.45007H120.373C120.457 2.43345 120.542 2.43662 120.624 2.45932C120.706 2.48202 120.781 2.52362 120.843 2.58074C120.906 2.63786 120.954 2.70891 120.984 2.78814C121.014 2.86738 121.025 2.95256 121.016 3.03682C121.021 3.19211 120.971 3.34414 120.876 3.46695C120.81 3.53072 120.731 3.57909 120.644 3.6086C120.557 3.6381 120.465 3.64801 120.373 3.6376H119.763V2.45007Z" fill="white"/>
<path d="M-0.116699 12.7585H2.92226C3.12096 14.4977 4.1659 15.0447 5.90746 15.0447C7.39889 15.0447 8.41811 14.4977 8.41811 13.5299C8.41811 12.6089 8.04408 12.1857 5.37914 11.7392C1.31629 11.0426 0.173171 9.76626 0.173171 7.66236C0.173171 5.22652 2.31213 3.78418 5.5194 3.78418C9.25966 3.78418 11.1298 5.50002 11.1882 8.186H8.28018C8.20538 6.47015 6.96174 6.04704 5.5194 6.04704C4.22668 6.04704 3.23083 6.57067 3.23083 7.53847C3.23083 8.50626 3.82928 8.85691 6.41473 9.28002C10.3677 9.92522 11.5108 11.1689 11.5108 13.3335C11.5108 15.919 9.12408 17.3076 5.79291 17.3076C2.36122 17.3076 0.0749891 16.0148 -0.116699 12.7585Z" fill="white"/>
<path d="M21.9252 15.5173C20.8054 16.8614 19.4379 17.3079 17.8226 17.3079C15.0174 17.3079 13.0981 15.9053 13.0981 13.404C13.0981 11.1178 14.7135 9.97469 18.0704 9.40197L21.8246 8.73106V7.98534C21.8246 6.81651 21.1233 6.19469 19.4613 6.19469C18.0446 6.19469 16.8524 6.7908 16.7776 8.20976H13.6942C13.7433 5.12638 16.3288 3.78223 19.4379 3.78223C23.1174 3.78223 24.8823 5.27365 24.8823 7.63703V17.2612H21.9252V15.5173ZM18.5168 14.996C20.1532 14.996 21.8246 14.1264 21.8246 11.9874V10.8443L18.6431 11.4895C17.175 11.7887 16.3054 12.137 16.3054 13.3059C16.3054 14.3251 17.002 14.996 18.5168 14.996Z" fill="white"/>
<path d="M38.2374 3.83984L31.762 21.1198H28.7231L30.273 16.9331C30.2566 16.8793 25.3989 3.8866 25.3989 3.8866L28.5267 3.83984L31.8275 12.7721L35.2241 3.83984H38.2374Z" fill="white"/>
<path d="M64.6787 10.5451C64.6787 6.69262 67.0655 3.78223 71.0699 3.78223C75.0743 3.78223 77.4587 6.58742 77.4587 10.7952V11.5409H67.7878C68.0613 13.5537 69.2044 14.8464 71.0605 14.8464C72.5777 14.8464 73.5969 14.2012 74.1439 13.0581H77.2016C76.3553 15.6295 74.1439 17.3079 71.0605 17.3079C67.0655 17.3079 64.6787 14.3999 64.6787 10.5451ZM74.3029 9.29911C73.9779 7.41028 72.8605 6.24145 71.0699 6.24145C69.2792 6.24145 68.1595 7.41028 67.8135 9.29911H74.3029Z" fill="white"/>
<path d="M79.0391 10.5451C79.0391 6.69262 81.4258 3.78223 85.5845 3.78223C89.7432 3.78223 92.13 6.69262 92.13 10.5451C92.13 14.3976 89.7432 17.3079 85.5845 17.3079C81.4258 17.3079 79.0391 14.3999 79.0391 10.5451ZM85.5845 14.6968C87.8965 14.6968 88.9391 13.0324 88.9391 10.5451C88.9391 8.05781 87.8965 6.3934 85.5845 6.3934C83.2726 6.3934 82.2276 8.06015 82.2276 10.5451C82.2276 13.03 83.2656 14.6968 85.5798 14.6968H85.5845Z" fill="white"/>
<path d="M56.7351 3.76562H59.9611L64.8702 17.289H61.5227L58.2266 7.68121L55.6154 17.289H52.6068L49.9956 7.68121L46.6201 17.289H43.2632L48.2564 3.76562H51.4871L54.1169 13.2168L56.7351 3.76562Z" fill="white"/>
<path d="M102.71 7.83295L100.155 17.2888H96.9219L91.8516 3.76074H95.2084L98.584 13.3685L101.195 3.76542H104.204L106.813 13.3685L110.111 3.76074H113.468L108.475 17.2888H105.244L102.71 7.83295Z" fill="white"/>
</svg>
