<?xml version="1.0" encoding="utf-8"?><svg xmlns="http://www.w3.org/2000/svg" xmlns:xlink="http://www.w3.org/1999/xlink"><symbol viewBox="0 0 28 24" id="ico-cart" xmlns="http://www.w3.org/2000/svg"><path d="M23.813 4.964a.937.937 0 00-.75-.375H5.402L4.89 2.83a.937.937 0 00-.9-.674H.938a.937.937 0 100 1.875h2.349l3.74 12.776c.117.4.483.674.9.674h11.91a.938.938 0 00.9-.674L23.962 5.79a.937.937 0 00-.15-.826zm-4.678 10.642H8.63L5.953 6.464H21.81l-2.676 9.142zm-7.778 6.238a1.266 1.266 0 100-2.531 1.266 1.266 0 000 2.53zm5.05 0a1.266 1.266 0 100-2.532 1.266 1.266 0 000 2.532z"/></symbol><symbol viewBox="0 0 13 12" id="ico-close" xmlns="http://www.w3.org/2000/svg"><path fill-rule="evenodd" clip-rule="evenodd" d="M2.07.343A1 1 0 10.658 1.757l3.535 3.536a1 1 0 010 1.414L.657 10.243a1 1 0 001.414 1.414L5.606 8.12a1 1 0 011.415 0l3.535 3.536a1 1 0 001.414-1.414L8.435 6.707a1 1 0 010-1.414l3.535-3.536A1 1 0 0010.556.343L7.021 3.88a1 1 0 01-1.415 0L2.071.343z"/></symbol><symbol viewBox="0 0 16 16" id="ico-facebook" xmlns="http://www.w3.org/2000/svg"><g clip-path="url(#ca)"><path d="M15.1-.001H.9c-.5 0-.9.4-.9.9v14.25c0 .5.4.9.9.9h7.65v-6.25h-2.1v-2.4h2.1v-1.8c0-2.05 1.25-3.2 3.1-3.2.9 0 1.65.1 1.85.1v2.15h-1.3c-1 0-1.2.5-1.2 1.2v1.55h2.4l-.3 2.4H11v6.2h4.1c.5 0 .9-.4.9-.9V.899c0-.5-.4-.9-.9-.9z"/></g><defs><clipPath id="ca"><path transform="translate(0 -.001)" d="M0 0h16v16H0z"/></clipPath></defs></symbol><symbol viewBox="0 0 16 16" id="ico-instagram" xmlns="http://www.w3.org/2000/svg"><path d="M11.35-.001h-6.7C2.1-.001 0 2.099 0 4.649v6.7c0 2.55 2.1 4.65 4.65 4.65h6.7c2.55 0 4.65-2.1 4.65-4.65v-6.7c0-2.55-2.1-4.65-4.65-4.65zm3.4 11.35c0 1.85-1.5 3.4-3.4 3.4h-6.7c-1.85 0-3.4-1.5-3.4-3.4v-6.7c0-1.85 1.5-3.4 3.4-3.4h6.7c1.85 0 3.4 1.5 3.4 3.4v6.7zM8 3.699a4.3 4.3 0 100 8.6 4.3 4.3 0 004.3-4.3c0-2.4-1.9-4.3-4.3-4.3zm0 7.35a3.03 3.03 0 01-3.05-3.05c0-1.7 1.35-3.05 3.05-3.05 1.7 0 3.05 1.35 3.05 3.05 0 1.7-1.35 3.05-3.05 3.05zm4.4-8.05c-.35 0-.65.3-.65.6 0 .35.3.65.65.65.35 0 .6-.3.6-.65 0-.3-.3-.6-.6-.6z"/></symbol><symbol viewBox="0 0 8 8" id="ico-percent" xmlns="http://www.w3.org/2000/svg"><path d="M6.452.962a.606.606 0 00-.85.106L1.358 6.522a.607.607 0 00.957.745l4.242-5.455a.606.606 0 00-.106-.85zM6.08 7.5a1.212 1.212 0 100-2.424 1.212 1.212 0 000 2.424zM1.837 3.258a1.212 1.212 0 100-2.424 1.212 1.212 0 000 2.424z"/></symbol><symbol viewBox="0 0 20 20" id="ico-phone" xmlns="http://www.w3.org/2000/svg"><path d="M19 14.476v2.71a1.803 1.803 0 01-1.23 1.719c-.24.08-.492.11-.744.088a17.943 17.943 0 01-7.81-2.773 17.63 17.63 0 01-5.43-5.42 17.862 17.862 0 01-2.779-7.83A1.803 1.803 0 012.08 1.153c.23-.101.478-.154.73-.154h2.714a1.812 1.812 0 011.81 1.554c.115.867.327 1.718.634 2.538a1.803 1.803 0 01-.407 1.906L6.41 8.145a14.466 14.466 0 005.43 5.42l1.15-1.148a1.811 1.811 0 011.91-.406c.82.306 1.674.518 2.543.632a1.81 1.81 0 011.556 1.833z"/></symbol><symbol viewBox="0 0 14 15" id="ico-play" xmlns="http://www.w3.org/2000/svg"><path d="M13.41 6.634a1 1 0 010 1.732L2.297 14.782a1 1 0 01-1.5-.866V1.083a1 1 0 011.5-.866L13.41 6.634z"/></symbol><symbol viewBox="0 0 6 6" id="ico-remove" xmlns="http://www.w3.org/2000/svg"><path fill-rule="evenodd" clip-rule="evenodd" d="M1.115.486a.444.444 0 10-.628.628l1.178 1.179a1 1 0 010 1.414L.487 4.886a.444.444 0 00.628.628l1.179-1.178a1 1 0 011.414 0l1.179 1.178a.444.444 0 00.628-.628L4.337 3.707a1 1 0 010-1.414l1.178-1.179a.444.444 0 00-.628-.628L3.708 1.664a1 1 0 01-1.414 0L1.115.486z"/></symbol><symbol viewBox="0 0 16 16" id="ico-view-three" xmlns="http://www.w3.org/2000/svg"><path fill-rule="evenodd" clip-rule="evenodd" d="M3.48 1H1v2.48h2.48V1zM1 0H0v4.48h4.48V0H1zm8.24 1H6.76v2.48h2.48V1zM6.76 0h-1v4.48h4.48V0H6.76zm5.76 1H15v2.48h-2.48V1zm-1-1H16v4.48h-4.48V0zM3.48 6.76H1v2.48h2.48V6.76zM1 5.76H0v4.48h4.48V5.76H1zm5.76 1h2.48v2.48H6.76V6.76zm-1-1h4.48v4.48H5.76V5.76zm9.24 1h-2.48v2.48H15V6.76zm-2.48-1h-1v4.48H16V5.76h-3.48zM1 12.52h2.48V15H1v-2.48zm-1-1h4.48V16H0v-4.48zm9.24 1H6.76V15h2.48v-2.48zm-2.48-1h-1V16h4.48v-4.48H6.76zm5.76 1H15V15h-2.48v-2.48zm-1-1H16V16h-4.48v-4.48z"/></symbol><symbol viewBox="0 0 16 16" id="ico-view-two" xmlns="http://www.w3.org/2000/svg"><path fill-rule="evenodd" clip-rule="evenodd" d="M1 1h5.333v5.333H1V1zM0 0h7.333v7.333H0V0zm1 9.667h5.333V15H1V9.667zm-1-1h7.333V16H0V8.667zM15 1H9.667v5.333H15V1zM9.667 0h-1v7.333H16V0H9.667zm0 9.667H15V15H9.667V9.667zm-1-1H16V16H8.667V8.667z"/></symbol></svg>