<?xml version="1.0" encoding="utf-8"?><svg xmlns="http://www.w3.org/2000/svg" xmlns:xlink="http://www.w3.org/1999/xlink"><symbol viewBox="0 0 676 132" id="guarantee-UA" xmlns="http://www.w3.org/2000/svg"><path d="M43.557 5.432V107.25H25.112V23.38h-.597L.701 38.591V21.69L26.007 5.432h17.55zM68.009 107.25V93.926l35.348-34.652c3.381-3.414 6.198-6.446 8.452-9.098 2.253-2.651 3.944-5.22 5.071-7.706 1.126-2.486 1.69-5.137 1.69-7.954 0-3.215-.729-5.966-2.188-8.253-1.458-2.32-3.463-4.11-6.015-5.37-2.552-1.259-5.452-1.889-8.7-1.889-3.348 0-6.281.696-8.8 2.088-2.52 1.36-4.475 3.298-5.867 5.817-1.359 2.519-2.038 5.519-2.038 8.999h-17.55c0-6.463 1.475-12.081 4.425-16.854 2.95-4.773 7.01-8.468 12.18-11.087 5.204-2.618 11.17-3.927 17.898-3.927 6.828 0 12.827 1.276 17.997 3.828 5.171 2.552 9.181 6.049 12.031 10.49 2.884 4.441 4.326 9.512 4.326 15.213 0 3.812-.729 7.557-2.188 11.236-1.458 3.679-4.027 7.755-7.706 12.23-3.646 4.474-8.766 9.893-15.362 16.257l-17.55 17.848v.696h44.347v15.412H68.009zm163.027-20.93l22.671-55.434h14.517L237.35 107.25h-12.578l-30.178-76.364h14.368l22.074 55.434zm-26.598-55.434v76.364h-17.351V30.886h17.351zm53.942 76.364V30.886h17.202v76.364H258.38zm33.948 0V30.886h17.997v76.364h-17.997zm9.048-87.202c-2.85 0-5.303-.944-7.358-2.833-2.055-1.923-3.082-4.226-3.082-6.911 0-2.718 1.027-5.021 3.082-6.91C296.073 1.47 298.526.51 301.376.51c2.884 0 5.336.961 7.358 2.883 2.055 1.89 3.083 4.193 3.083 6.911 0 2.685-1.028 4.988-3.083 6.91-2.022 1.89-4.474 2.834-7.358 2.834zm59.366 88.693c-7.624 0-14.169-1.673-19.638-5.021-5.436-3.347-9.629-7.97-12.578-13.87-2.917-5.933-4.375-12.761-4.375-20.483 0-7.756 1.491-14.6 4.474-20.533 2.983-5.966 7.192-10.606 12.628-13.92 5.469-3.348 11.932-5.022 19.389-5.022 6.198 0 11.683 1.143 16.456 3.43 4.806 2.254 8.634 5.453 11.484 9.596 2.851 4.11 4.475 8.915 4.873 14.417h-17.202c-.696-3.679-2.353-6.745-4.972-9.197-2.585-2.486-6.048-3.729-10.39-3.729-3.679 0-6.911.994-9.695 2.983-2.784 1.955-4.955 4.773-6.513 8.452-1.524 3.679-2.287 8.087-2.287 13.224 0 5.204.763 9.678 2.287 13.424 1.525 3.712 3.663 6.578 6.414 8.6 2.784 1.989 6.048 2.983 9.794 2.983 2.651 0 5.021-.497 7.109-1.491a14.299 14.299 0 005.32-4.425c1.425-1.922 2.403-4.259 2.933-7.01h17.202c-.431 5.403-2.022 10.192-4.773 14.368-2.751 4.143-6.496 7.391-11.236 9.744-4.739 2.32-10.308 3.48-16.704 3.48zm91.233-1.491V45.503h-16.307c-4.143 0-7.325.961-9.546 2.883-2.22 1.923-3.314 4.31-3.281 7.16-.033 2.85 1.011 5.203 3.132 7.06 2.122 1.855 5.154 2.783 9.098 2.783h22.571v13.125h-22.571c-6.098 0-11.368-.961-15.809-2.883-4.442-1.923-7.855-4.64-10.242-8.154-2.386-3.513-3.579-7.623-3.579-12.33 0-4.905 1.209-9.164 3.629-12.776 2.453-3.646 5.933-6.463 10.44-8.452 4.541-2.022 9.927-3.033 16.158-3.033h33.16v76.364h-16.853zm-49.318 0l21.328-39.176h17.748l-21.378 39.176h-17.698zm147.374-76.364v62.94h11.684v37.984h-17.6v-24.56H485.55V30.886h17.351v61.598h29.929V30.886h17.201zm25.037 76.364V30.886h17.997v76.364h-17.997zm9.048-87.202c-2.85 0-5.303-.944-7.358-2.833-2.055-1.923-3.082-4.226-3.082-6.911 0-2.718 1.027-5.021 3.082-6.91C578.813 1.47 581.266.51 584.116.51c2.884 0 5.336.961 7.358 2.883 2.055 1.89 3.082 4.193 3.082 6.911 0 2.685-1.027 4.988-3.082 6.91-2.022 1.89-4.474 2.834-7.358 2.834zm26.056 87.202V30.886h32.067c9.048 0 16.19 1.807 21.427 5.42 5.27 3.612 7.905 8.65 7.905 15.113 0 4.276-1.492 7.772-4.475 10.49-2.949 2.685-6.976 4.491-12.08 5.42 4.01.33 7.523 1.342 10.539 3.032 3.05 1.69 5.436 3.91 7.159 6.662 1.724 2.75 2.586 5.916 2.586 9.496 0 4.209-1.111 7.871-3.331 10.987-2.188 3.082-5.386 5.485-9.596 7.208-4.176 1.691-9.247 2.536-15.213 2.536h-36.988zm16.853-14.169h20.135c3.315 0 5.917-.779 7.806-2.337 1.889-1.59 2.834-3.745 2.834-6.463 0-3.148-.945-5.618-2.834-7.407-1.889-1.823-4.491-2.735-7.806-2.735h-20.135v18.942zm0-30.575h15.562c2.452 0 4.557-.348 6.313-1.044 1.757-.73 3.099-1.74 4.027-3.033.928-1.326 1.393-2.9 1.393-4.723 0-2.618-1.078-4.673-3.232-6.165-2.121-1.491-5.071-2.237-8.849-2.237h-15.214v17.202z"/><defs><linearGradient id="aa" x1="96.2" y1="83.301" x2="572.067" y2="83.301" gradientUnits="userSpaceOnUse"><stop stop-color="#FFDF65"/><stop offset="1" stop-color="#FFC165"/></linearGradient></defs></symbol><symbol viewBox="0 0 28 24" id="ico-cart" xmlns="http://www.w3.org/2000/svg"><path d="M23.813 4.964a.937.937 0 00-.75-.375H5.402L4.89 2.83a.937.937 0 00-.9-.674H.938a.937.937 0 100 1.875h2.349l3.74 12.776c.117.4.483.674.9.674h11.91a.938.938 0 00.9-.674L23.962 5.79a.937.937 0 00-.15-.826zm-4.678 10.642H8.63L5.953 6.464H21.81l-2.676 9.142zm-7.778 6.238a1.266 1.266 0 100-2.531 1.266 1.266 0 000 2.53zm5.05 0a1.266 1.266 0 100-2.532 1.266 1.266 0 000 2.532z"/></symbol><symbol viewBox="0 0 16 16" id="ico-characteristics" xmlns="http://www.w3.org/2000/svg"><path fill-rule="evenodd" clip-rule="evenodd" d="M8.5 0h-1v7.5H0v1h7.5V16h1V8.5H16v-1H8.5V0z"/></symbol><symbol viewBox="0 0 13 12" id="ico-close" xmlns="http://www.w3.org/2000/svg"><path fill-rule="evenodd" clip-rule="evenodd" d="M2.07.343A1 1 0 10.658 1.757l3.535 3.536a1 1 0 010 1.414L.657 10.243a1 1 0 001.414 1.414L5.606 8.12a1 1 0 011.415 0l3.535 3.536a1 1 0 001.414-1.414L8.435 6.707a1 1 0 010-1.414l3.535-3.536A1 1 0 0010.556.343L7.021 3.88a1 1 0 01-1.415 0L2.071.343z"/></symbol><symbol viewBox="0 0 15 12" id="ico-cloud-message" xmlns="http://www.w3.org/2000/svg"><path d="M0 11.381C5.368 9.19 7.105 2.881 7.303 0L15 7.166c-5.21 5.733-12.171 5.199-15 4.215z"/></symbol><symbol viewBox="0 0 17 16" id="ico-delivery" xmlns="http://www.w3.org/2000/svg"><path fill-rule="evenodd" clip-rule="evenodd" d="M1.835 1.333A.667.667 0 001.168 2v9.333c0 .903.598 1.665 1.42 1.915a2 2 0 003.8.085h4.227a2.001 2.001 0 003.8-.085 2 2 0 001.42-1.915V8.666A3.334 3.334 0 0012.5 5.333H9.835V2a.667.667 0 00-.667-.667H1.835zM10.615 12h-.78V6.666H12.5a2 2 0 012 2v2.667c0 .177-.07.346-.195.471a2 2 0 00-3.69.196zm-6.585.195a.666.666 0 11.958.925.666.666 0 01-.958-.925zm7.805.471a.667.667 0 111.333 0 .667.667 0 01-1.333 0z"/></symbol><symbol viewBox="0 0 16 4" id="ico-ellipsis" xmlns="http://www.w3.org/2000/svg"><path fill-rule="evenodd" clip-rule="evenodd" d="M4 2a2 2 0 11-4 0 2 2 0 014 0zm6 0a2 2 0 11-4 0 2 2 0 014 0zm4 2a2 2 0 100-4 2 2 0 000 4z"/></symbol><symbol viewBox="0 0 16 16" id="ico-facebook" xmlns="http://www.w3.org/2000/svg"><g clip-path="url(#ha)"><path d="M15.1-.001H.9c-.5 0-.9.4-.9.9v14.25c0 .5.4.9.9.9h7.65v-6.25h-2.1v-2.4h2.1v-1.8c0-2.05 1.25-3.2 3.1-3.2.9 0 1.65.1 1.85.1v2.15h-1.3c-1 0-1.2.5-1.2 1.2v1.55h2.4l-.3 2.4H11v6.2h4.1c.5 0 .9-.4.9-.9V.899c0-.5-.4-.9-.9-.9z"/></g><defs><clipPath id="ha"><path transform="translate(0 -.001)" d="M0 0h16v16H0z"/></clipPath></defs></symbol><symbol viewBox="0 0 16 16" id="ico-gallery" xmlns="http://www.w3.org/2000/svg"><g clip-path="url(#ia)"><path d="M14.5 4H14v-.5A1.5 1.5 0 0012.5 2H12v-.5A1.5 1.5 0 0010.5 0h-9A1.5 1.5 0 000 1.5v9A1.5 1.5 0 001.5 12H2v.5A1.5 1.5 0 003.5 14H4v.5A1.5 1.5 0 005.5 16h9a1.5 1.5 0 001.5-1.5v-9A1.5 1.5 0 0014.5 4zm-13 7a.5.5 0 01-.5-.5v-9a.5.5 0 01.5-.5h9a.5.5 0 01.5.5v9a.5.5 0 01-.5.5h-9zm2 2a.5.5 0 01-.5-.5V12h7.5a1.5 1.5 0 001.5-1.5V3h.5a.5.5 0 01.5.5v9a.5.5 0 01-.5.5h-9zM15 14.5a.5.5 0 01-.5.5h-9a.5.5 0 01-.5-.5V14h7.5a1.5 1.5 0 001.5-1.5V5h.5a.5.5 0 01.5.5v9z"/></g><defs><clipPath id="ia"><path d="M0 0h16v16H0z"/></clipPath></defs></symbol><symbol viewBox="0 0 44 44" id="ico-in-box-1" xmlns="http://www.w3.org/2000/svg"><path fill-rule="evenodd" clip-rule="evenodd" d="M22 42.501c11.322 0 20.5-9.178 20.5-20.5s-9.178-20.5-20.5-20.5-20.5 9.178-20.5 20.5 9.178 20.5 20.5 20.5zm0 1.5c12.15 0 22-9.85 22-22s-9.85-22-22-22-22 9.85-22 22 9.85 22 22 22zm0-4.5c9.665 0 17.5-7.835 17.5-17.5s-7.835-17.5-17.5-17.5-17.5 7.835-17.5 17.5 7.835 17.5 17.5 17.5zm0 1.5c10.493 0 19-8.507 19-19s-8.507-19-19-19-19 8.507-19 19 8.507 19 19 19zm-5.407-24.657a.75.75 0 011.06 0l3.89 3.89a1 1 0 001.414 0l3.89-3.89a.75.75 0 111.06 1.06l-3.89 3.89a1 1 0 000 1.414l3.89 3.89a.75.75 0 11-1.06 1.06l-3.89-3.89a1 1 0 00-1.414 0l-3.89 3.89a.75.75 0 01-1.06-1.06l3.89-3.89a1 1 0 000-1.414l-3.89-3.89a.75.75 0 010-1.06z"/></symbol><symbol viewBox="0 0 44 44" id="ico-in-box-2" xmlns="http://www.w3.org/2000/svg"><path d="M43.595 34.545l-8.955-4.477 6.021-3.011a.685.685 0 00.084-.065.722.722 0 00.123-.096 1.88 1.88 0 00.147-.238.728.728 0 00.031-.155.702.702 0 00.02-.102V5.868a.733.733 0 00-1.06-.656L33.25 8.589 27.744.328a.734.734 0 00-.939-.25l-5.538 2.77L17.195.812c-.017-.008-.034-.007-.05-.014a.791.791 0 00-.557 0c-.016.007-.033.006-.05.014L.406 8.878a.72.72 0 00-.117.081c-.012.01-.026.016-.038.026a.725.725 0 00-.157.202c-.004.007-.012.012-.016.02-.006.012-.005.025-.01.038a.724.724 0 00-.055.201c-.002.021-.007.04-.008.061 0 .01-.004.018-.004.027v20.534c0 .277.157.531.405.656l7.662 3.83v3.58a.733.733 0 00.733.734h7.893l10.112 5.056c.207.103.45.103.656 0l16.134-8.067a.733.733 0 000-1.312zM33.733 9.988L39.6 7.054v18.894l-5.867 2.933V9.988zm-16.866-7.7l2.76 1.38-8.955 4.477a.733.733 0 00-.282 1.063l4.335 6.502L2.373 9.534l14.494-7.246zM8.28 17.082a.734.734 0 00-.214.52v15.312l-6.6-3.3V10.721l12.293 6.147H8.8a.733.733 0 00-.519.214zm7.852 20.319h-6.6V18.334h6.6v19.067zM12.071 9.085L26.882 1.68l5.047 7.57-14.811 7.406-5.047-7.57zm20.196 1.636v18.16L17.6 21.548v-3.494l14.667-7.333zM17.6 23.188l13.76 6.88-13.76 6.88v-13.76zm9.533 19.26l-8.627-4.314L33 30.888l8.627 4.313-14.494 7.247z"/></symbol><symbol viewBox="0 0 44 44" id="ico-in-box-3" xmlns="http://www.w3.org/2000/svg"><g clip-path="url(#la)"><path d="M43.454 17.11a.862.862 0 00-.23-.418L27.309.777a.86.86 0 00-.417-.23A22.122 22.122 0 0022 .001 21.856 21.856 0 006.444 6.445 21.856 21.856 0 000 22a21.856 21.856 0 006.444 15.556A21.856 21.856 0 0022 44.001a21.856 21.856 0 0015.556-6.444A21.856 21.856 0 0044 22.001c0-1.65-.184-3.296-.546-4.892zm-2.843-.6a9.622 9.622 0 01-6.102 2.17c-5.223-.001-9.532-4.187-9.654-9.435a9.575 9.575 0 012.166-6.325l13.59 13.59zm-2.606 5.491c0 8.825-7.18 16.004-16.005 16.004S5.996 30.825 5.996 22.001c0-8.825 7.18-16.005 16.004-16.005.506 0 1.014.024 1.517.072a11.413 11.413 0 00-.383 2.928A13.18 13.18 0 0022 8.947c-7.198 0-13.054 5.856-13.054 13.054S14.802 35.055 22 35.055 35.054 29.199 35.054 22c0-.539-.033-1.078-.1-1.611a11.392 11.392 0 002.913-.495c.091.696.138 1.401.138 2.106zm-4.794-1.677c.083.553.124 1.115.124 1.677 0 6.25-5.085 11.335-11.335 11.335-6.25 0-11.335-5.085-11.335-11.335 0-6.25 5.085-11.335 11.335-11.335.422 0 .845.023 1.263.07.768 5.06 4.871 9.008 9.948 9.588zM22 42.282c-11.183 0-20.281-9.098-20.281-20.281C1.719 10.818 10.817 1.72 22 1.72c1.188 0 2.373.103 3.535.307a11.306 11.306 0 00-1.43 2.375A17.968 17.968 0 0022 4.278c-9.773 0-17.723 7.95-17.723 17.723S12.227 39.724 22 39.724s17.723-7.95 17.723-17.723c0-.923-.071-1.849-.213-2.756a11.349 11.349 0 002.321-1.513c.299 1.395.45 2.83.45 4.269 0 11.183-9.098 20.281-20.281 20.281z"/><path fill-rule="evenodd" clip-rule="evenodd" d="M21.25 23.176c0-.358-.213-.674-.433-.956a1.567 1.567 0 01-.065-.091L20 21l-.445-.668c-.665-.997.05-2.332 1.248-2.332h2.394c1.198 0 1.913 1.335 1.248 2.332L24 21l-.752 1.128a1.616 1.616 0 01-.065.09c-.22.283-.433.6-.433.957v.55c0 .105.016.21.051.31.368 1.04.876 1.613 1.371 1.909.535.32 1.151.376 1.772.23a3.57 3.57 0 001.662-.936c.446-.448.644-.903.644-1.238a.75.75 0 011.5 0c0 .871-.472 1.685-1.081 2.297a5.07 5.07 0 01-2.38 1.336c-.924.218-1.955.155-2.887-.401a3.786 3.786 0 01-.348-.236c-.586-.446-1.522-.446-2.108 0a4.03 4.03 0 01-.349.236c-.931.556-1.962.62-2.886.401a5.07 5.07 0 01-2.38-1.336c-.61-.612-1.081-1.426-1.081-2.297a.75.75 0 011.5 0c0 .335.198.79.644 1.238a3.57 3.57 0 001.662.935c.62.147 1.237.09 1.772-.23.495-.295 1.003-.867 1.37-1.908a.93.93 0 00.052-.31v-.55z"/></g><defs><clipPath id="la"><path transform="translate(0 .001)" d="M0 0h44v44H0z"/></clipPath></defs></symbol><symbol viewBox="0 0 34 44" id="ico-in-box-4" xmlns="http://www.w3.org/2000/svg"><path fill-rule="evenodd" clip-rule="evenodd" d="M7.726 3.325h.001l.585-.22c.81-.302 1.608-.583 2.41-.787 1.595-.408 3.119-.49 4.61.138 1.103.466 1.844 1.42 2.32 2.43.115.244.211.484.291.713-5.285.52-8.247 4.102-9.742 7.535-.71 1.633-.735 3.544-.53 5.185.156 1.264.458 2.44.756 3.33-2.274 1.038-3.86 3.262-3.86 5.866 0 3.482 2.836 6.283 6.358 6.483.567 1.677 1.498 3.886 2.702 5.785.69 1.088 1.496 2.118 2.41 2.885.913.767 2.007 1.332 3.247 1.332 1.242 0 2.328-.568 3.229-1.337.9-.77 1.69-1.8 2.368-2.886 1.189-1.907 2.118-4.125 2.733-5.778C31.149 33.813 34 31.006 34 27.515c0-2.604-1.586-4.828-3.86-5.867.298-.889.6-2.065.757-3.329.204-1.64.18-3.552-.531-5.185-1.548-3.555-4.669-7.269-10.314-7.579a9.517 9.517 0 00-.558-1.51C18.904 2.794 17.87 1.353 16.13.62c-2.062-.87-4.09-.703-5.92-.236-.91.232-1.793.545-2.618.852l-.628.236c-.598.226-1.156.437-1.704.617-2.322.761-4.513.948-5.26.948v1.998c.944 0 3.354-.214 5.903-1.05.595-.196 1.214-.43 1.823-.66zm20.466 17.76c.264-.776.546-1.851.69-3.008.185-1.49.125-2.992-.382-4.156-1.428-3.281-4.185-6.388-9.216-6.388-5.032 0-7.788 3.107-9.217 6.388-.507 1.164-.567 2.666-.382 4.156.144 1.157.426 2.232.69 3.008.312-.043.63-.064.953-.064 2.927 0 5.437 1.79 6.372 4.32l-1.907.684c-.643-1.738-2.389-3.006-4.465-3.006-2.64 0-4.731 2.04-4.731 4.496 0 2.456 2.09 4.496 4.73 4.496.413 0 .812-.05 1.19-.144l.493 1.939-.005.001c.536 1.498 1.345 3.342 2.344 4.918.63.993 1.308 1.837 2.005 2.423.699.586 1.342.854 1.93.854.584 0 1.216-.265 1.899-.849.684-.584 1.347-1.426 1.968-2.422 1.042-1.671 1.888-3.645 2.478-5.21l.42-1.654c.38.094.778.144 1.19.144 2.641 0 4.731-2.04 4.731-4.496 0-2.456-2.09-4.496-4.73-4.496-2.077 0-3.823 1.268-4.465 3.006l-1.908-.683c.935-2.531 3.446-4.321 6.372-4.321.323 0 .642.021.953.064z"/></symbol><symbol viewBox="0 0 16 16" id="ico-instagram" xmlns="http://www.w3.org/2000/svg"><path d="M11.35-.001h-6.7C2.1-.001 0 2.099 0 4.649v6.7c0 2.55 2.1 4.65 4.65 4.65h6.7c2.55 0 4.65-2.1 4.65-4.65v-6.7c0-2.55-2.1-4.65-4.65-4.65zm3.4 11.35c0 1.85-1.5 3.4-3.4 3.4h-6.7c-1.85 0-3.4-1.5-3.4-3.4v-6.7c0-1.85 1.5-3.4 3.4-3.4h6.7c1.85 0 3.4 1.5 3.4 3.4v6.7zM8 3.699a4.3 4.3 0 100 8.6 4.3 4.3 0 004.3-4.3c0-2.4-1.9-4.3-4.3-4.3zm0 7.35a3.03 3.03 0 01-3.05-3.05c0-1.7 1.35-3.05 3.05-3.05 1.7 0 3.05 1.35 3.05 3.05 0 1.7-1.35 3.05-3.05 3.05zm4.4-8.05c-.35 0-.65.3-.65.6 0 .35.3.65.65.65.35 0 .6-.3.6-.65 0-.3-.3-.6-.6-.6z"/></symbol><symbol viewBox="0 0 16 16" id="ico-more" xmlns="http://www.w3.org/2000/svg"><path fill-rule="evenodd" clip-rule="evenodd" d="M9 .999a1 1 0 10-2 0v5a1 1 0 01-1 1H1a1 1 0 000 2h5a1 1 0 011 1v5a1 1 0 102 0v-5a1 1 0 011-1h5a1 1 0 100-2h-5a1 1 0 01-1-1v-5z"/></symbol><symbol viewBox="0 0 8 12" id="ico-pause" xmlns="http://www.w3.org/2000/svg"><path fill-rule="evenodd" clip-rule="evenodd" d="M1 0a1 1 0 00-1 1v10a1 1 0 001 1h1a1 1 0 001-1V1a1 1 0 00-1-1H1zm5 0a1 1 0 00-1 1v10a1 1 0 001 1h1a1 1 0 001-1V1a1 1 0 00-1-1H6z"/></symbol><symbol viewBox="0 0 8 8" id="ico-percent" xmlns="http://www.w3.org/2000/svg"><path d="M6.452.962a.606.606 0 00-.85.106L1.358 6.522a.607.607 0 00.957.745l4.242-5.455a.606.606 0 00-.106-.85zM6.08 7.5a1.212 1.212 0 100-2.424 1.212 1.212 0 000 2.424zM1.837 3.258a1.212 1.212 0 100-2.424 1.212 1.212 0 000 2.424z"/></symbol><symbol viewBox="0 0 20 20" id="ico-phone" xmlns="http://www.w3.org/2000/svg"><path d="M19 14.476v2.71a1.803 1.803 0 01-1.23 1.719c-.24.08-.492.11-.744.088a17.943 17.943 0 01-7.81-2.773 17.63 17.63 0 01-5.43-5.42 17.862 17.862 0 01-2.779-7.83A1.803 1.803 0 012.08 1.153c.23-.101.478-.154.73-.154h2.714a1.812 1.812 0 011.81 1.554c.115.867.327 1.718.634 2.538a1.803 1.803 0 01-.407 1.906L6.41 8.145a14.466 14.466 0 005.43 5.42l1.15-1.148a1.811 1.811 0 011.91-.406c.82.306 1.674.518 2.543.632a1.81 1.81 0 011.556 1.833z"/></symbol><symbol viewBox="0 0 14 15" id="ico-play" xmlns="http://www.w3.org/2000/svg"><path d="M13.41 6.634a1 1 0 010 1.732L2.297 14.782a1 1 0 01-1.5-.866V1.083a1 1 0 011.5-.866L13.41 6.634z"/></symbol><symbol viewBox="0 0 6 6" id="ico-remove" xmlns="http://www.w3.org/2000/svg"><path fill-rule="evenodd" clip-rule="evenodd" d="M1.115.486a.444.444 0 10-.628.628l1.178 1.179a1 1 0 010 1.414L.487 4.886a.444.444 0 00.628.628l1.179-1.178a1 1 0 011.414 0l1.179 1.178a.444.444 0 00.628-.628L4.337 3.707a1 1 0 010-1.414l1.178-1.179a.444.444 0 00-.628-.628L3.708 1.664a1 1 0 01-1.414 0L1.115.486z"/></symbol><symbol viewBox="0 0 32 32" id="ico-shelters-default" xmlns="http://www.w3.org/2000/svg"><g clip-path="url(#ua)"><path d="M8.303 3.153c-.986-.756-2.167-1.237-3.524-1.433a9.167 9.167 0 00-1.825-.076c-.308 2.762.045 4.485.4 5.45 1.464-1.626 3.126-2.948 4.949-3.94zm15.394 0c1.823.993 3.485 2.315 4.949 3.94.355-.964.708-2.687.4-5.45a9.164 9.164 0 00-1.825.077c-1.357.196-2.538.677-3.524 1.433zM32 20.43c0-4.316-1.72-8.709-4.721-12.053-1.492-1.664-3.207-2.975-5.097-3.897-1.98-.966-4.06-1.456-6.182-1.456-2.123 0-4.202.49-6.182 1.456-1.89.922-3.605 2.233-5.097 3.897C1.721 11.72 0 16.114 0 20.43a9.085 9.085 0 006.902 8.83 37.797 37.797 0 0018.196 0A9.085 9.085 0 0032 20.43zm-13.54 7.464h-4.92c-4.586 0-8.317-3.731-8.317-8.317s3.731-8.317 8.317-8.317h4.92c4.586 0 8.317 3.73 8.317 8.317 0 4.586-3.731 8.317-8.317 8.317z"/><path d="M8.575 23.677a6.431 6.431 0 004.965 2.342h4.92a6.432 6.432 0 004.965-2.342H8.575zm9.885-10.542h-4.92a6.45 6.45 0 00-6.442 6.442c0 .781.14 1.53.397 2.225h17.01a6.413 6.413 0 00.397-2.225 6.45 6.45 0 00-6.442-6.442z"/></g><defs><clipPath id="ua"><path d="M0 0h32v32H0z"/></clipPath></defs></symbol><symbol viewBox="0 0 16 16" id="ico-view-three" xmlns="http://www.w3.org/2000/svg"><path fill-rule="evenodd" clip-rule="evenodd" d="M3.48 1H1v2.48h2.48V1zM1 0H0v4.48h4.48V0H1zm8.24 1H6.76v2.48h2.48V1zM6.76 0h-1v4.48h4.48V0H6.76zm5.76 1H15v2.48h-2.48V1zm-1-1H16v4.48h-4.48V0zM3.48 6.76H1v2.48h2.48V6.76zM1 5.76H0v4.48h4.48V5.76H1zm5.76 1h2.48v2.48H6.76V6.76zm-1-1h4.48v4.48H5.76V5.76zm9.24 1h-2.48v2.48H15V6.76zm-2.48-1h-1v4.48H16V5.76h-3.48zM1 12.52h2.48V15H1v-2.48zm-1-1h4.48V16H0v-4.48zm9.24 1H6.76V15h2.48v-2.48zm-2.48-1h-1V16h4.48v-4.48H6.76zm5.76 1H15V15h-2.48v-2.48zm-1-1H16V16h-4.48v-4.48z"/></symbol><symbol viewBox="0 0 16 16" id="ico-view-two" xmlns="http://www.w3.org/2000/svg"><path fill-rule="evenodd" clip-rule="evenodd" d="M1 1h5.333v5.333H1V1zM0 0h7.333v7.333H0V0zm1 9.667h5.333V15H1V9.667zm-1-1h7.333V16H0V8.667zM15 1H9.667v5.333H15V1zM9.667 0h-1v7.333H16V0H9.667zm0 9.667H15V15H9.667V9.667zm-1-1H16V16H8.667V8.667z"/></symbol><symbol viewBox="0 0 47 65" id="ico-zsu" xmlns="http://www.w3.org/2000/svg"><path fill-rule="evenodd" clip-rule="evenodd" d="M25.205 22.228a29.118 29.118 0 004.003 15.797c.195.332.377.67.546 1.013l1.492-.332a2.862 2.862 0 001.784-1.246 2.805 2.805 0 00.369-2.13 2.807 2.807 0 00-1.262-1.763 2.865 2.865 0 00-2.152-.361l1.428-12.007a17.558 17.558 0 012.938-7.827 17.782 17.782 0 016.24-5.617v40.89h-9.519l-.006.033a15.484 15.484 0 01-5.623 9.266 5.665 5.665 0 00-1.943 1.98 5.665 5.665 0 00-1.943-1.98 15.484 15.484 0 01-5.623-9.266l-.006-.034h-9.52V7.754a17.782 17.782 0 016.24 5.618 17.559 17.559 0 012.938 7.827l1.428 12.007a2.876 2.876 0 00-2.152.361 2.807 2.807 0 00-1.291 2.864c.063.366.198.715.398 1.029a2.862 2.862 0 001.783 1.246l1.494.332c.169-.343.35-.681.546-1.013a29.118 29.118 0 004.003-15.797l-.456-12.763a8.438 8.438 0 012.16-5.94 8.438 8.438 0 012.162 5.94l-.456 12.763zM16.23 41.702l-1.103-.245a5.71 5.71 0 01-2.983-1.729 5.623 5.623 0 01-1.282-2.364H9.257v8.46h6.41c0-1.394.19-2.78.563-4.122zm2.285 4.122c0-1.187.168-2.366.498-3.502l.283.063a3.565 3.565 0 011.999 1.237c.505.625.78 1.402.78 2.202h-3.56zm.32 2.82a12.653 12.653 0 003.24 5.958v-5.958h-3.24zm4.665-6.807a6.415 6.415 0 00-3.383-2.156c.045-.08.09-.159.137-.238a31.99 31.99 0 003.246-7.652 31.994 31.994 0 003.246 7.652c.046.079.092.158.136.238a6.416 6.416 0 00-3.383 2.156zM9.257 34.544V13.611a14.774 14.774 0 013.499 7.906l1.121 9.37a5.673 5.673 0 00-2.499 2.364c-.226.41-.4.845-.516 1.294H9.257zm15.667 20.058v-5.958h3.24a12.651 12.651 0 01-3.24 5.958zm0-8.778h3.56a12.59 12.59 0 00-.497-3.502l-.284.063a3.566 3.566 0 00-1.999 1.237 3.503 3.503 0 00-.78 2.202zm5.846-4.122c.373 1.341.563 2.728.563 4.122h6.41v-8.46h-1.606a5.623 5.623 0 01-1.282 2.364 5.71 5.71 0 01-2.983 1.729l-1.102.245zm6.972-28.091v20.933h-1.605a5.602 5.602 0 00-.516-1.293 5.673 5.673 0 00-2.5-2.364l1.122-9.37a14.775 14.775 0 013.5-7.906z"/><defs><linearGradient id="xa" x1="10.994" y1="59.925" x2="64.435" y2="53.039" gradientUnits="userSpaceOnUse"><stop stop-color="#3B3B3B"/><stop offset="1" stop-color="#A0FF65"/></linearGradient></defs></symbol></svg>