<?xml version="1.0" encoding="utf-8"?><svg xmlns="http://www.w3.org/2000/svg" xmlns:xlink="http://www.w3.org/1999/xlink"><symbol viewBox="0 0 28 24" id="ico-cart" xmlns="http://www.w3.org/2000/svg"><path d="M23.813 4.964a.937.937 0 00-.75-.375H5.402L4.89 2.83a.937.937 0 00-.9-.674H.938a.937.937 0 100 1.875h2.349l3.74 12.776c.117.4.483.674.9.674h11.91a.938.938 0 00.9-.674L23.962 5.79a.937.937 0 00-.15-.826zm-4.678 10.642H8.63L5.953 6.464H21.81l-2.676 9.142zm-7.778 6.238a1.266 1.266 0 100-2.531 1.266 1.266 0 000 2.53zm5.05 0a1.266 1.266 0 100-2.532 1.266 1.266 0 000 2.532z"/></symbol><symbol viewBox="0 0 13 12" id="ico-close" xmlns="http://www.w3.org/2000/svg"><path fill-rule="evenodd" clip-rule="evenodd" d="M2.07.343A1 1 0 10.658 1.757l3.535 3.536a1 1 0 010 1.414L.657 10.243a1 1 0 001.414 1.414L5.606 8.12a1 1 0 011.415 0l3.535 3.536a1 1 0 001.414-1.414L8.435 6.707a1 1 0 010-1.414l3.535-3.536A1 1 0 0010.556.343L7.021 3.88a1 1 0 01-1.415 0L2.071.343z"/></symbol><symbol viewBox="0 0 15 12" id="ico-cloud-message" xmlns="http://www.w3.org/2000/svg"><path d="M0 11.381C5.368 9.19 7.105 2.881 7.303 0L15 7.166c-5.21 5.733-12.171 5.199-15 4.215z"/></symbol><symbol viewBox="0 0 17 16" id="ico-delivery" xmlns="http://www.w3.org/2000/svg"><path fill-rule="evenodd" clip-rule="evenodd" d="M1.835 1.333A.667.667 0 001.168 2v9.333c0 .903.598 1.665 1.42 1.915a2 2 0 003.8.085h4.227a2.001 2.001 0 003.8-.085 2 2 0 001.42-1.915V8.666A3.334 3.334 0 0012.5 5.333H9.835V2a.667.667 0 00-.667-.667H1.835zM10.615 12h-.78V6.666H12.5a2 2 0 012 2v2.667c0 .177-.07.346-.195.471a2 2 0 00-3.69.196zm-6.585.195a.666.666 0 11.958.925.666.666 0 01-.958-.925zm7.805.471a.667.667 0 111.333 0 .667.667 0 01-1.333 0z"/></symbol><symbol viewBox="0 0 16 16" id="ico-facebook" xmlns="http://www.w3.org/2000/svg"><g clip-path="url(#ea)"><path d="M15.1-.001H.9c-.5 0-.9.4-.9.9v14.25c0 .5.4.9.9.9h7.65v-6.25h-2.1v-2.4h2.1v-1.8c0-2.05 1.25-3.2 3.1-3.2.9 0 1.65.1 1.85.1v2.15h-1.3c-1 0-1.2.5-1.2 1.2v1.55h2.4l-.3 2.4H11v6.2h4.1c.5 0 .9-.4.9-.9V.899c0-.5-.4-.9-.9-.9z"/></g><defs><clipPath id="ea"><path transform="translate(0 -.001)" d="M0 0h16v16H0z"/></clipPath></defs></symbol><symbol viewBox="0 0 16 16" id="ico-instagram" xmlns="http://www.w3.org/2000/svg"><path d="M11.35-.001h-6.7C2.1-.001 0 2.099 0 4.649v6.7c0 2.55 2.1 4.65 4.65 4.65h6.7c2.55 0 4.65-2.1 4.65-4.65v-6.7c0-2.55-2.1-4.65-4.65-4.65zm3.4 11.35c0 1.85-1.5 3.4-3.4 3.4h-6.7c-1.85 0-3.4-1.5-3.4-3.4v-6.7c0-1.85 1.5-3.4 3.4-3.4h6.7c1.85 0 3.4 1.5 3.4 3.4v6.7zM8 3.699a4.3 4.3 0 100 8.6 4.3 4.3 0 004.3-4.3c0-2.4-1.9-4.3-4.3-4.3zm0 7.35a3.03 3.03 0 01-3.05-3.05c0-1.7 1.35-3.05 3.05-3.05 1.7 0 3.05 1.35 3.05 3.05 0 1.7-1.35 3.05-3.05 3.05zm4.4-8.05c-.35 0-.65.3-.65.6 0 .35.3.65.65.65.35 0 .6-.3.6-.65 0-.3-.3-.6-.6-.6z"/></symbol><symbol viewBox="0 0 8 8" id="ico-percent" xmlns="http://www.w3.org/2000/svg"><path d="M6.452.962a.606.606 0 00-.85.106L1.358 6.522a.607.607 0 00.957.745l4.242-5.455a.606.606 0 00-.106-.85zM6.08 7.5a1.212 1.212 0 100-2.424 1.212 1.212 0 000 2.424zM1.837 3.258a1.212 1.212 0 100-2.424 1.212 1.212 0 000 2.424z"/></symbol><symbol viewBox="0 0 20 20" id="ico-phone" xmlns="http://www.w3.org/2000/svg"><path d="M19 14.476v2.71a1.803 1.803 0 01-1.23 1.719c-.24.08-.492.11-.744.088a17.943 17.943 0 01-7.81-2.773 17.63 17.63 0 01-5.43-5.42 17.862 17.862 0 01-2.779-7.83A1.803 1.803 0 012.08 1.153c.23-.101.478-.154.73-.154h2.714a1.812 1.812 0 011.81 1.554c.115.867.327 1.718.634 2.538a1.803 1.803 0 01-.407 1.906L6.41 8.145a14.466 14.466 0 005.43 5.42l1.15-1.148a1.811 1.811 0 011.91-.406c.82.306 1.674.518 2.543.632a1.81 1.81 0 011.556 1.833z"/></symbol><symbol viewBox="0 0 14 15" id="ico-play" xmlns="http://www.w3.org/2000/svg"><path d="M13.41 6.634a1 1 0 010 1.732L2.297 14.782a1 1 0 01-1.5-.866V1.083a1 1 0 011.5-.866L13.41 6.634z"/></symbol><symbol viewBox="0 0 6 6" id="ico-remove" xmlns="http://www.w3.org/2000/svg"><path fill-rule="evenodd" clip-rule="evenodd" d="M1.115.486a.444.444 0 10-.628.628l1.178 1.179a1 1 0 010 1.414L.487 4.886a.444.444 0 00.628.628l1.179-1.178a1 1 0 011.414 0l1.179 1.178a.444.444 0 00.628-.628L4.337 3.707a1 1 0 010-1.414l1.178-1.179a.444.444 0 00-.628-.628L3.708 1.664a1 1 0 01-1.414 0L1.115.486z"/></symbol><symbol viewBox="0 0 32 32" id="ico-shelters-default" xmlns="http://www.w3.org/2000/svg"><g clip-path="url(#ka)"><path d="M8.303 3.153c-.986-.756-2.167-1.237-3.524-1.433a9.167 9.167 0 00-1.825-.076c-.308 2.762.045 4.485.4 5.45 1.464-1.626 3.126-2.948 4.949-3.94zm15.394 0c1.823.993 3.485 2.315 4.949 3.94.355-.964.708-2.687.4-5.45a9.164 9.164 0 00-1.825.077c-1.357.196-2.538.677-3.524 1.433zM32 20.43c0-4.316-1.72-8.709-4.721-12.053-1.492-1.664-3.207-2.975-5.097-3.897-1.98-.966-4.06-1.456-6.182-1.456-2.123 0-4.202.49-6.182 1.456-1.89.922-3.605 2.233-5.097 3.897C1.721 11.72 0 16.114 0 20.43a9.085 9.085 0 006.902 8.83 37.797 37.797 0 0018.196 0A9.085 9.085 0 0032 20.43zm-13.54 7.464h-4.92c-4.586 0-8.317-3.731-8.317-8.317s3.731-8.317 8.317-8.317h4.92c4.586 0 8.317 3.73 8.317 8.317 0 4.586-3.731 8.317-8.317 8.317z"/><path d="M8.575 23.677a6.431 6.431 0 004.965 2.342h4.92a6.432 6.432 0 004.965-2.342H8.575zm9.885-10.542h-4.92a6.45 6.45 0 00-6.442 6.442c0 .781.14 1.53.397 2.225h17.01a6.413 6.413 0 00.397-2.225 6.45 6.45 0 00-6.442-6.442z"/></g><defs><clipPath id="ka"><path d="M0 0h32v32H0z"/></clipPath></defs></symbol><symbol viewBox="0 0 16 16" id="ico-view-three" xmlns="http://www.w3.org/2000/svg"><path fill-rule="evenodd" clip-rule="evenodd" d="M3.48 1H1v2.48h2.48V1zM1 0H0v4.48h4.48V0H1zm8.24 1H6.76v2.48h2.48V1zM6.76 0h-1v4.48h4.48V0H6.76zm5.76 1H15v2.48h-2.48V1zm-1-1H16v4.48h-4.48V0zM3.48 6.76H1v2.48h2.48V6.76zM1 5.76H0v4.48h4.48V5.76H1zm5.76 1h2.48v2.48H6.76V6.76zm-1-1h4.48v4.48H5.76V5.76zm9.24 1h-2.48v2.48H15V6.76zm-2.48-1h-1v4.48H16V5.76h-3.48zM1 12.52h2.48V15H1v-2.48zm-1-1h4.48V16H0v-4.48zm9.24 1H6.76V15h2.48v-2.48zm-2.48-1h-1V16h4.48v-4.48H6.76zm5.76 1H15V15h-2.48v-2.48zm-1-1H16V16h-4.48v-4.48z"/></symbol><symbol viewBox="0 0 16 16" id="ico-view-two" xmlns="http://www.w3.org/2000/svg"><path fill-rule="evenodd" clip-rule="evenodd" d="M1 1h5.333v5.333H1V1zM0 0h7.333v7.333H0V0zm1 9.667h5.333V15H1V9.667zm-1-1h7.333V16H0V8.667zM15 1H9.667v5.333H15V1zM9.667 0h-1v7.333H16V0H9.667zm0 9.667H15V15H9.667V9.667zm-1-1H16V16H8.667V8.667z"/></symbol><symbol viewBox="0 0 47 65" id="ico-zsu" xmlns="http://www.w3.org/2000/svg"><path fill-rule="evenodd" clip-rule="evenodd" d="M25.205 22.228a29.118 29.118 0 004.003 15.797c.195.332.377.67.546 1.013l1.492-.332a2.862 2.862 0 001.784-1.246 2.805 2.805 0 00.369-2.13 2.807 2.807 0 00-1.262-1.763 2.865 2.865 0 00-2.152-.361l1.428-12.007a17.558 17.558 0 012.938-7.827 17.782 17.782 0 016.24-5.617v40.89h-9.519l-.006.033a15.484 15.484 0 01-5.623 9.266 5.665 5.665 0 00-1.943 1.98 5.665 5.665 0 00-1.943-1.98 15.484 15.484 0 01-5.623-9.266l-.006-.034h-9.52V7.754a17.782 17.782 0 016.24 5.618 17.559 17.559 0 012.938 7.827l1.428 12.007a2.876 2.876 0 00-2.152.361 2.807 2.807 0 00-1.291 2.864c.063.366.198.715.398 1.029a2.862 2.862 0 001.783 1.246l1.494.332c.169-.343.35-.681.546-1.013a29.118 29.118 0 004.003-15.797l-.456-12.763a8.438 8.438 0 012.16-5.94 8.438 8.438 0 012.162 5.94l-.456 12.763zM16.23 41.702l-1.103-.245a5.71 5.71 0 01-2.983-1.729 5.623 5.623 0 01-1.282-2.364H9.257v8.46h6.41c0-1.394.19-2.78.563-4.122zm2.285 4.122c0-1.187.168-2.366.498-3.502l.283.063a3.565 3.565 0 011.999 1.237c.505.625.78 1.402.78 2.202h-3.56zm.32 2.82a12.653 12.653 0 003.24 5.958v-5.958h-3.24zm4.665-6.807a6.415 6.415 0 00-3.383-2.156c.045-.08.09-.159.137-.238a31.99 31.99 0 003.246-7.652 31.994 31.994 0 003.246 7.652c.046.079.092.158.136.238a6.416 6.416 0 00-3.383 2.156zM9.257 34.544V13.611a14.774 14.774 0 013.499 7.906l1.121 9.37a5.673 5.673 0 00-2.499 2.364c-.226.41-.4.845-.516 1.294H9.257zm15.667 20.058v-5.958h3.24a12.651 12.651 0 01-3.24 5.958zm0-8.778h3.56a12.59 12.59 0 00-.497-3.502l-.284.063a3.566 3.566 0 00-1.999 1.237 3.503 3.503 0 00-.78 2.202zm5.846-4.122c.373 1.341.563 2.728.563 4.122h6.41v-8.46h-1.606a5.623 5.623 0 01-1.282 2.364 5.71 5.71 0 01-2.983 1.729l-1.102.245zm6.972-28.091v20.933h-1.605a5.602 5.602 0 00-.516-1.293 5.673 5.673 0 00-2.5-2.364l1.122-9.37a14.775 14.775 0 013.5-7.906z"/><defs><linearGradient id="na" x1="10.994" y1="59.925" x2="64.435" y2="53.039" gradientUnits="userSpaceOnUse"><stop stop-color="#3B3B3B"/><stop offset="1" stop-color="#A0FF65"/></linearGradient></defs></symbol></svg>