<?xml version="1.0" encoding="utf-8"?><svg xmlns="http://www.w3.org/2000/svg" xmlns:xlink="http://www.w3.org/1999/xlink"><symbol fill="none" viewBox="0 0 28 24" id="ico-cart" xmlns="http://www.w3.org/2000/svg"><path d="M23.813 4.964a.937.937 0 00-.75-.375H5.402L4.89 2.83a.937.937 0 00-.9-.674H.938a.937.937 0 100 1.875h2.349l3.74 12.776c.117.4.483.674.9.674h11.91a.938.938 0 00.9-.674L23.962 5.79a.937.937 0 00-.15-.826zm-4.678 10.642H8.63L5.953 6.464H21.81l-2.676 9.142zm-7.778 6.238a1.266 1.266 0 100-2.531 1.266 1.266 0 000 2.53zm5.05 0a1.266 1.266 0 100-2.532 1.266 1.266 0 000 2.532z" fill="#fff"/></symbol><symbol fill="none" viewBox="0 0 13 12" id="ico-close" xmlns="http://www.w3.org/2000/svg"><path fill-rule="evenodd" clip-rule="evenodd" d="M2.07.343A1 1 0 10.658 1.757l3.535 3.536a1 1 0 010 1.414L.657 10.243a1 1 0 001.414 1.414L5.606 8.12a1 1 0 011.415 0l3.535 3.536a1 1 0 001.414-1.414L8.435 6.707a1 1 0 010-1.414l3.535-3.536A1 1 0 0010.556.343L7.021 3.88a1 1 0 01-1.415 0L2.071.343z" fill="#F5F5F5"/></symbol></svg>