<?xml version="1.0" encoding="utf-8"?><svg xmlns="http://www.w3.org/2000/svg" xmlns:xlink="http://www.w3.org/1999/xlink"><symbol viewBox="0 0 28 24" id="ico-cart" xmlns="http://www.w3.org/2000/svg"><path d="M23.813 4.964a.937.937 0 00-.75-.375H5.402L4.89 2.83a.937.937 0 00-.9-.674H.938a.937.937 0 100 1.875h2.349l3.74 12.776c.117.4.483.674.9.674h11.91a.938.938 0 00.9-.674L23.962 5.79a.937.937 0 00-.15-.826zm-4.678 10.642H8.63L5.953 6.464H21.81l-2.676 9.142zm-7.778 6.238a1.266 1.266 0 100-2.531 1.266 1.266 0 000 2.53zm5.05 0a1.266 1.266 0 100-2.532 1.266 1.266 0 000 2.532z"/></symbol><symbol viewBox="0 0 13 12" id="ico-close" xmlns="http://www.w3.org/2000/svg"><path fill-rule="evenodd" clip-rule="evenodd" d="M2.07.343A1 1 0 10.658 1.757l3.535 3.536a1 1 0 010 1.414L.657 10.243a1 1 0 001.414 1.414L5.606 8.12a1 1 0 011.415 0l3.535 3.536a1 1 0 001.414-1.414L8.435 6.707a1 1 0 010-1.414l3.535-3.536A1 1 0 0010.556.343L7.021 3.88a1 1 0 01-1.415 0L2.071.343z"/></symbol><symbol viewBox="0 0 16 16" id="ico-facebook" xmlns="http://www.w3.org/2000/svg"><g clip-path="url(#ca)"><path d="M15.1-.001H.9c-.5 0-.9.4-.9.9v14.25c0 .5.4.9.9.9h7.65v-6.25h-2.1v-2.4h2.1v-1.8c0-2.05 1.25-3.2 3.1-3.2.9 0 1.65.1 1.85.1v2.15h-1.3c-1 0-1.2.5-1.2 1.2v1.55h2.4l-.3 2.4H11v6.2h4.1c.5 0 .9-.4.9-.9V.899c0-.5-.4-.9-.9-.9z"/></g><defs><clipPath id="ca"><path transform="translate(0 -.001)" d="M0 0h16v16H0z"/></clipPath></defs></symbol><symbol viewBox="0 0 16 16" id="ico-instagram" xmlns="http://www.w3.org/2000/svg"><path d="M11.35-.001h-6.7C2.1-.001 0 2.099 0 4.649v6.7c0 2.55 2.1 4.65 4.65 4.65h6.7c2.55 0 4.65-2.1 4.65-4.65v-6.7c0-2.55-2.1-4.65-4.65-4.65zm3.4 11.35c0 1.85-1.5 3.4-3.4 3.4h-6.7c-1.85 0-3.4-1.5-3.4-3.4v-6.7c0-1.85 1.5-3.4 3.4-3.4h6.7c1.85 0 3.4 1.5 3.4 3.4v6.7zM8 3.699a4.3 4.3 0 100 8.6 4.3 4.3 0 004.3-4.3c0-2.4-1.9-4.3-4.3-4.3zm0 7.35a3.03 3.03 0 01-3.05-3.05c0-1.7 1.35-3.05 3.05-3.05 1.7 0 3.05 1.35 3.05 3.05 0 1.7-1.35 3.05-3.05 3.05zm4.4-8.05c-.35 0-.65.3-.65.6 0 .35.3.65.65.65.35 0 .6-.3.6-.65 0-.3-.3-.6-.6-.6z"/></symbol></svg>