<svg width="676" height="132" viewBox="0 0 676 132" fill="none" xmlns="http://www.w3.org/2000/svg">
<path d="M43.5566 5.43182V107.25H25.112V23.3793H24.5154L0.701444 38.5923V21.6889L26.0068 5.43182H43.5566ZM68.0088 107.25V93.9261L103.357 59.2741C106.738 55.8603 109.555 52.8276 111.809 50.1761C114.062 47.5246 115.753 44.956 116.88 42.4702C118.006 39.9844 118.57 37.3329 118.57 34.5156C118.57 31.3007 117.841 28.5497 116.382 26.2628C114.924 23.9427 112.919 22.1529 110.367 20.8935C107.815 19.634 104.915 19.0043 101.667 19.0043C98.319 19.0043 95.3857 19.7003 92.8668 21.0923C90.3478 22.4512 88.3924 24.3901 87.0003 26.9091C85.6414 29.428 84.962 32.4276 84.962 35.9077H67.4122C67.4122 29.4446 68.8871 23.8267 71.837 19.054C74.7868 14.2812 78.8469 10.5857 84.0174 7.96733C89.221 5.34896 95.1869 4.03977 101.915 4.03977C108.743 4.03977 114.742 5.31581 119.912 7.86789C125.083 10.42 129.093 13.9167 131.943 18.358C134.827 22.7992 136.269 27.8703 136.269 33.571C136.269 37.3826 135.54 41.1278 134.081 44.8068C132.623 48.4858 130.054 52.5625 126.375 57.0369C122.729 61.5114 117.609 66.9304 111.013 73.294L93.4634 91.142V91.8381H137.81V107.25H68.0088ZM231.036 86.3196L253.707 30.8864H268.224L237.35 107.25H224.772L194.594 30.8864H208.962L231.036 86.3196ZM204.438 30.8864V107.25H187.087V30.8864H204.438ZM258.38 107.25V30.8864H275.582V107.25H258.38ZM292.328 107.25V30.8864H310.325V107.25H292.328ZM301.376 20.0483C298.526 20.0483 296.073 19.1037 294.018 17.2145C291.963 15.2921 290.936 12.9886 290.936 10.304C290.936 7.58617 291.963 5.28267 294.018 3.39346C296.073 1.47111 298.526 0.50994 301.376 0.50994C304.26 0.50994 306.712 1.47111 308.734 3.39346C310.789 5.28267 311.817 7.58617 311.817 10.304C311.817 12.9886 310.789 15.2921 308.734 17.2145C306.712 19.1037 304.26 20.0483 301.376 20.0483ZM360.742 108.741C353.118 108.741 346.573 107.068 341.104 103.72C335.668 100.373 331.475 95.7491 328.526 89.8494C325.609 83.9167 324.151 77.089 324.151 69.3665C324.151 61.6108 325.642 54.7666 328.625 48.8338C331.608 42.8679 335.817 38.2277 341.253 34.9133C346.722 31.5658 353.185 29.892 360.642 29.892C366.84 29.892 372.325 31.0355 377.098 33.3224C381.904 35.5762 385.732 38.7746 388.582 42.9176C391.433 47.0275 393.057 51.8333 393.455 57.3352H376.253C375.557 53.6562 373.9 50.5904 371.281 48.1378C368.696 45.652 365.233 44.4091 360.891 44.4091C357.212 44.4091 353.98 45.4034 351.196 47.392C348.412 49.3475 346.241 52.1648 344.683 55.8438C343.159 59.5227 342.396 63.9309 342.396 69.0682C342.396 74.2718 343.159 78.7462 344.683 82.4915C346.208 86.2036 348.346 89.0705 351.097 91.0923C353.881 93.081 357.145 94.0753 360.891 94.0753C363.542 94.0753 365.912 93.5781 368 92.5838C370.121 91.5563 371.895 90.0814 373.32 88.1591C374.745 86.2367 375.723 83.9001 376.253 81.1491H393.455C393.024 86.5516 391.433 91.3409 388.682 95.517C385.931 99.66 382.186 102.908 377.446 105.261C372.707 107.581 367.138 108.741 360.742 108.741ZM451.975 107.25V45.5028H435.668C431.525 45.5028 428.343 46.464 426.122 48.3864C423.902 50.3087 422.808 52.6951 422.841 55.5455C422.808 58.3958 423.852 60.7491 425.973 62.6051C428.095 64.4612 431.127 65.3892 435.071 65.3892H457.642V78.5142H435.071C428.973 78.5142 423.703 77.553 419.262 75.6307C414.82 73.7083 411.407 70.9905 409.02 67.4773C406.634 63.964 405.441 59.8542 405.441 55.1477C405.441 50.2424 406.65 45.9834 409.07 42.3707C411.523 38.7249 415.003 35.9077 419.51 33.919C424.051 31.8973 429.437 30.8864 435.668 30.8864H468.828V107.25H451.975ZM402.657 107.25L423.985 68.0739H441.733L420.355 107.25H402.657ZM550.031 30.8864V93.8267H561.715V131.81H544.115V107.25H485.55V30.8864H502.901V92.4844H532.83V30.8864H550.031ZM575.068 107.25V30.8864H593.065V107.25H575.068ZM584.116 20.0483C581.266 20.0483 578.813 19.1037 576.758 17.2145C574.703 15.2921 573.676 12.9886 573.676 10.304C573.676 7.58617 574.703 5.28267 576.758 3.39346C578.813 1.47111 581.266 0.50994 584.116 0.50994C587 0.50994 589.452 1.47111 591.474 3.39346C593.529 5.28267 594.556 7.58617 594.556 10.304C594.556 12.9886 593.529 15.2921 591.474 17.2145C589.452 19.1037 587 20.0483 584.116 20.0483ZM610.172 107.25V30.8864H642.239C651.287 30.8864 658.429 32.6927 663.666 36.3054C668.936 39.9181 671.571 44.956 671.571 51.419C671.571 55.6946 670.079 59.1913 667.096 61.9091C664.147 64.5937 660.12 66.4001 655.016 67.3281C659.026 67.6596 662.539 68.6705 665.555 70.3608C668.605 72.0511 670.991 74.2718 672.714 77.0227C674.438 79.7737 675.3 82.9389 675.3 86.5185C675.3 90.7277 674.189 94.3902 671.969 97.5057C669.781 100.588 666.583 102.991 662.373 104.714C658.197 106.405 653.126 107.25 647.16 107.25H610.172ZM627.025 93.081H647.16C650.475 93.081 653.077 92.3021 654.966 90.7443C656.855 89.1534 657.8 86.9991 657.8 84.2812C657.8 81.1326 656.855 78.6634 654.966 76.8736C653.077 75.0507 650.475 74.1392 647.16 74.1392H627.025V93.081ZM627.025 62.5057H642.587C645.039 62.5057 647.144 62.1577 648.9 61.4616C650.657 60.7325 651.999 59.7216 652.927 58.429C653.855 57.1032 654.32 55.5289 654.32 53.706C654.32 51.0876 653.242 49.0327 651.088 47.5412C648.967 46.0497 646.017 45.304 642.239 45.304H627.025V62.5057Z" fill="url(#paint0_linear_2723_7642)"/>
<defs>
<linearGradient id="paint0_linear_2723_7642" x1="96.2" y1="83.3011" x2="572.067" y2="83.3011" gradientUnits="userSpaceOnUse">
<stop stop-color="#FFDF65"/>
<stop offset="1" stop-color="#FFC165"/>
</linearGradient>
</defs>
</svg>
