<svg width="16" height="16" viewBox="0 0 16 16" fill="none" xmlns="http://www.w3.org/2000/svg">
<g clip-path="url(#clip0_4753_1095)">
<path d="M15.1 -0.000976562H0.9C0.4 -0.000976562 0 0.399023 0 0.899023V15.149C0 15.649 0.4 16.049 0.9 16.049H8.55V9.79902H6.45V7.39902H8.55V5.59902C8.55 3.54902 9.8 2.39902 11.65 2.39902C12.55 2.39902 13.3 2.49902 13.5 2.49902V4.64902H12.2C11.2 4.64902 11 5.14902 11 5.84902V7.39902H13.4L13.1 9.79902H11V15.999H15.1C15.6 15.999 16 15.599 16 15.099V0.899023C16 0.399023 15.6 -0.000976562 15.1 -0.000976562Z" fill="#FFDF65"/>
</g>
<defs>
<clipPath id="clip0_4753_1095">
<rect width="16" height="16" fill="white" transform="translate(0 -0.000976562)"/>
</clipPath>
</defs>
</svg>
