<svg width="8" height="8" viewBox="0 0 8 8" fill="none" xmlns="http://www.w3.org/2000/svg">
<path d="M6.45187 0.961649C6.18771 0.756199 5.80696 0.803774 5.60139 1.06797L1.35905 6.52239C1.04739 6.92314 1.3394 7.50055 1.83704 7.50055C2.01764 7.50055 2.19635 7.42014 2.31585 7.26654L6.55819 1.81212C6.76368 1.54792 6.71607 1.16714 6.45187 0.961649Z" fill="white"/>
<path d="M6.07928 7.50037C6.74871 7.50037 7.29138 6.95769 7.29138 6.28827C7.29138 5.61885 6.74871 5.07617 6.07928 5.07617C5.40986 5.07617 4.86719 5.61885 4.86719 6.28827C4.86719 6.95769 5.40986 7.50037 6.07928 7.50037Z" fill="white"/>
<path d="M1.8371 3.25818C2.50652 3.25818 3.04919 2.7155 3.04919 2.04608C3.04919 1.37666 2.50652 0.833984 1.8371 0.833984C1.16767 0.833984 0.625 1.37666 0.625 2.04608C0.625 2.7155 1.16767 3.25818 1.8371 3.25818Z" fill="white"/>
</svg>