<svg width="16" height="16" viewBox="0 0 16 16" fill="none" xmlns="http://www.w3.org/2000/svg">
<path fill-rule="evenodd" clip-rule="evenodd" d="M9 0.999023C9 0.446739 8.55229 -0.000976562 8 -0.000976562C7.44772 -0.000976562 7 0.446739 7 0.999023V5.99902C7 6.55131 6.55228 6.99902 6 6.99902H1C0.447715 6.99902 0 7.44674 0 7.99902C0 8.55131 0.447715 8.99902 1 8.99902H6C6.55228 8.99902 7 9.44674 7 9.99902V14.999C7 15.5513 7.44771 15.999 8 15.999C8.55228 15.999 9 15.5513 9 14.999V9.99902C9 9.44674 9.44771 8.99902 10 8.99902H15C15.5523 8.99902 16 8.55131 16 7.99902C16 7.44674 15.5523 6.99902 15 6.99902H10C9.44772 6.99902 9 6.55131 9 5.99902V0.999023Z" fill="#282827"/>
</svg>