<svg width="13" height="12" viewBox="0 0 13 12" fill="none" xmlns="http://www.w3.org/2000/svg">
<path fill-rule="evenodd" clip-rule="evenodd" d="M2.07082 0.343146C1.6803 -0.0473784 1.04713 -0.0473788 0.65661 0.343146C0.266086 0.73367 0.266086 1.36684 0.65661 1.75736L4.19214 5.29289C4.58267 5.68342 4.58267 6.31658 4.19214 6.70711L0.65661 10.2426C0.266085 10.6332 0.266085 11.2663 0.65661 11.6569C1.04713 12.0474 1.6803 12.0474 2.07082 11.6569L5.60636 8.12132C5.99688 7.7308 6.63005 7.7308 7.02057 8.12132L10.5561 11.6569C10.9466 12.0474 11.5798 12.0474 11.9703 11.6569C12.3608 11.2663 12.3608 10.6332 11.9703 10.2426L8.43478 6.70711C8.04426 6.31658 8.04426 5.68342 8.43478 5.29289L11.9703 1.75736C12.3608 1.36683 12.3608 0.73367 11.9703 0.343146C11.5798 -0.0473781 10.9466 -0.0473784 10.5561 0.343146L7.02057 3.87868C6.63005 4.2692 5.99688 4.2692 5.60636 3.87868L2.07082 0.343146Z" fill="#F5F5F5"/>
</svg>