<svg width="28" height="24" viewBox="0 0 28 24" fill="none" xmlns="http://www.w3.org/2000/svg">
<path d="M23.8128 4.96444C23.6358 4.72814 23.3578 4.58906 23.0625 4.58906H5.40389L4.88906 2.83036C4.77211 2.4308 4.40569 2.15625 3.98934 2.15625H0.9375C0.419719 2.15625 0 2.57597 0 3.09375C0 3.61153 0.419719 4.03125 0.9375 4.03125H3.28692C3.42384 4.49902 6.88678 16.3287 7.02666 16.8066C7.14361 17.2061 7.51008 17.4807 7.92637 17.4807H19.8376C20.254 17.4807 20.6204 17.2061 20.7374 16.8066L23.9622 5.78995C24.0452 5.50664 23.9898 5.20073 23.8128 4.96444ZM19.1353 15.6057H8.6288L5.9528 6.46406H21.8113L19.1353 15.6057Z" fill="white"/>
<path d="M11.3573 21.8438C12.0563 21.8438 12.6229 21.2771 12.6229 20.5781C12.6229 19.8791 12.0563 19.3125 11.3573 19.3125C10.6583 19.3125 10.0917 19.8791 10.0917 20.5781C10.0917 21.2771 10.6583 21.8438 11.3573 21.8438Z" fill="white"/>
<path d="M16.4067 21.8438C17.1057 21.8438 17.6724 21.2771 17.6724 20.5781C17.6724 19.8791 17.1057 19.3125 16.4067 19.3125C15.7078 19.3125 15.1411 19.8791 15.1411 20.5781C15.1411 21.2771 15.7078 21.8438 16.4067 21.8438Z" fill="white"/>
</svg>