<svg width="16" height="16" viewBox="0 0 16 16" fill="none" xmlns="http://www.w3.org/2000/svg">
<path fill-rule="evenodd" clip-rule="evenodd" d="M3.48 1H1V3.48H3.48V1ZM1 0H0V1V3.48V4.48H1H3.48H4.48V3.48V1V0H3.48H1ZM9.24042 1H6.76042V3.48H9.24042V1ZM6.76042 0H5.76042V1V3.48V4.48H6.76042H9.24042H10.2404V3.48V1V0H9.24042H6.76042ZM12.5195 1H14.9995V3.48H12.5195V1ZM11.5195 0H12.5195H14.9995H15.9995V1V3.48V4.48H14.9995H12.5195H11.5195V3.48V1V0ZM3.48 6.75977H1V9.23977H3.48V6.75977ZM1 5.75977H0V6.75977V9.23977V10.2398H1H3.48H4.48V9.23977V6.75977V5.75977H3.48H1ZM6.76042 6.75977H9.24042V9.23977H6.76042V6.75977ZM5.76042 5.75977H6.76042H9.24042H10.2404V6.75977V9.23977V10.2398H9.24042H6.76042H5.76042V9.23977V6.75977V5.75977ZM14.9995 6.75977H12.5195V9.23977H14.9995V6.75977ZM12.5195 5.75977H11.5195V6.75977V9.23977V10.2398H12.5195H14.9995H15.9995V9.23977V6.75977V5.75977H14.9995H12.5195ZM1 12.5202H3.48V15.0002H1V12.5202ZM0 11.5202H1H3.48H4.48V12.5202V15.0002V16.0002H3.48H1H0V15.0002V12.5202V11.5202ZM9.24042 12.5202H6.76042V15.0002H9.24042V12.5202ZM6.76042 11.5202H5.76042V12.5202V15.0002V16.0002H6.76042H9.24042H10.2404V15.0002V12.5202V11.5202H9.24042H6.76042ZM12.5195 12.5202H14.9995V15.0002H12.5195V12.5202ZM11.5195 11.5202H12.5195H14.9995H15.9995V12.5202V15.0002V16.0002H14.9995H12.5195H11.5195V15.0002V12.5202V11.5202Z" fill="#282827"/>
</svg>
