<svg width="123" height="20" viewBox="0 0 123 20" fill="none" xmlns="http://www.w3.org/2000/svg">
	<path d="M120.401 0.962892C119.852 0.962429 119.315 1.12497 118.858 1.42995C118.4 1.73493 118.044 2.16864 117.834 2.67619C117.623 3.18374 117.568 3.74232 117.675 4.28125C117.782 4.82018 118.047 5.31524 118.435 5.70377C118.824 6.0923 119.319 6.35685 119.858 6.46393C120.397 6.57101 120.955 6.51582 121.463 6.30533C121.97 6.09485 122.404 5.73853 122.709 5.28147C123.014 4.82442 123.177 4.28716 123.176 3.7377C123.175 3.00215 122.882 2.29709 122.362 1.77698C121.842 1.25687 121.137 0.964128 120.401 0.962892ZM122.79 3.7377C122.791 4.21097 122.652 4.67388 122.389 5.06782C122.127 5.46175 121.754 5.76899 121.317 5.95064C120.88 6.13229 120.399 6.18018 119.934 6.08825C119.47 5.99631 119.044 5.76869 118.709 5.43419C118.374 5.0997 118.146 4.67338 118.054 4.2092C117.961 3.74503 118.009 3.26388 118.19 2.82667C118.371 2.38947 118.678 2.01586 119.072 1.75316C119.465 1.49046 119.928 1.35048 120.401 1.35094C121.034 1.35156 121.641 1.60315 122.089 2.05055C122.537 2.49795 122.789 3.10467 122.79 3.7377Z" fill="white"/>
	<path d="M121.254 3.80825C121.358 3.70905 121.44 3.58902 121.494 3.45607C121.548 3.32311 121.573 3.18023 121.568 3.03682C121.573 2.89385 121.548 2.75135 121.494 2.61904C121.439 2.48672 121.357 2.3677 121.252 2.27007C121.006 2.06691 120.692 1.96496 120.373 1.98487H119.204V5.49137H119.756V4.08877H120.422L121.161 5.49137H121.778L120.974 3.99526C121.078 3.94999 121.173 3.88667 121.254 3.80825ZM119.763 2.45007H120.373C120.456 2.43345 120.542 2.43662 120.624 2.45932C120.705 2.48202 120.781 2.52362 120.843 2.58074C120.906 2.63786 120.954 2.70891 120.984 2.78814C121.014 2.86738 121.025 2.95256 121.016 3.03682C121.02 3.19211 120.971 3.34414 120.876 3.46695C120.81 3.53072 120.73 3.57909 120.644 3.6086C120.557 3.6381 120.464 3.64801 120.373 3.6376H119.763V2.45007Z" fill="white"/>
	<path d="M-0.116943 12.7585H2.92202C3.12072 14.4977 4.16565 15.0447 5.90721 15.0447C7.39864 15.0447 8.41786 14.4977 8.41786 13.5299C8.41786 12.6089 8.04384 12.1857 5.3789 11.7392C1.31604 11.0426 0.172927 9.76626 0.172927 7.66236C0.172927 5.22652 2.31189 3.78418 5.51916 3.78418C9.25942 3.78418 11.1295 5.50002 11.188 8.186H8.27994C8.20513 6.47015 6.9615 6.04704 5.51916 6.04704C4.22643 6.04704 3.23059 6.57067 3.23059 7.53847C3.23059 8.50626 3.82903 8.85691 6.41449 9.28002C10.3675 9.92522 11.5106 11.1689 11.5106 13.3335C11.5106 15.919 9.12384 17.3076 5.79267 17.3076C2.36098 17.3076 0.0747449 16.0148 -0.116943 12.7585Z" fill="white"/>
	<path d="M21.9249 15.5173C20.8052 16.8614 19.4376 17.3079 17.8223 17.3079C15.0171 17.3079 13.0979 15.9053 13.0979 13.404C13.0979 11.1178 14.7132 9.97469 18.0701 9.40197L21.8244 8.73106V7.98534C21.8244 6.81651 21.1231 6.19469 19.461 6.19469C18.0444 6.19469 16.8522 6.7908 16.7774 8.20976H13.694C13.7431 5.12638 16.3286 3.78223 19.4376 3.78223C23.1171 3.78223 24.8821 5.27365 24.8821 7.63703V17.2612H21.9249V15.5173ZM18.5166 14.996C20.153 14.996 21.8244 14.1264 21.8244 11.9874V10.8443L18.6428 11.4895C17.1748 11.7887 16.3052 12.137 16.3052 13.3059C16.3052 14.3251 17.0018 14.996 18.5166 14.996Z" fill="white"/>
	<path d="M38.2371 3.83984L31.7618 21.1198H28.7228L30.2727 16.9331C30.2563 16.8793 25.3987 3.8866 25.3987 3.8866L28.5265 3.83984L31.8273 12.7721L35.2239 3.83984H38.2371Z" fill="white"/>
	<path d="M64.6785 10.5451C64.6785 6.69262 67.0652 3.78223 71.0696 3.78223C75.0741 3.78223 77.4585 6.58742 77.4585 10.7952V11.5409H67.7876C68.0611 13.5537 69.2042 14.8464 71.0603 14.8464C72.5774 14.8464 73.5967 14.2012 74.1437 13.0581H77.2013C76.3551 15.6295 74.1437 17.3079 71.0603 17.3079C67.0652 17.3079 64.6785 14.3999 64.6785 10.5451ZM74.3026 9.29911C73.9777 7.41028 72.8603 6.24145 71.0696 6.24145C69.279 6.24145 68.1592 7.41028 67.8133 9.29911H74.3026Z" fill="white"/>
	<path d="M79.0386 10.5451C79.0386 6.69262 81.4253 3.78223 85.584 3.78223C89.7427 3.78223 92.1295 6.69262 92.1295 10.5451C92.1295 14.3976 89.7427 17.3079 85.584 17.3079C81.4253 17.3079 79.0386 14.3999 79.0386 10.5451ZM85.584 14.6968C87.896 14.6968 88.9386 13.0324 88.9386 10.5451C88.9386 8.05781 87.896 6.3934 85.584 6.3934C83.2721 6.3934 82.2271 8.06015 82.2271 10.5451C82.2271 13.03 83.2651 14.6968 85.5794 14.6968H85.584Z" fill="white"/>
	<path d="M56.7349 3.76562H59.9609L64.87 17.289H61.5224L58.2263 7.68121L55.6151 17.289H52.6066L49.9954 7.68121L46.6198 17.289H43.2629L48.2562 3.76562H51.4868L54.1167 13.2168L56.7349 3.76562Z" fill="white"/>
	<path d="M102.71 7.83295L100.155 17.2888H96.9217L91.8513 3.76074H95.2082L98.5838 13.3685L101.195 3.76542H104.204L106.812 13.3685L110.111 3.76074H113.468L108.474 17.2888H105.244L102.71 7.83295Z" fill="white"/>
</svg>
