<svg width="32" height="32" viewBox="0 0 32 32" fill="none" xmlns="http://www.w3.org/2000/svg">
<g clip-path="url(#clip0_5790_479)">
<path d="M8.30304 3.15345C7.31673 2.39676 6.13635 1.91595 4.77873 1.72045C4.04585 1.61501 3.40254 1.61726 2.95392 1.64376C2.64585 4.4057 2.99929 6.12889 3.35404 7.09332C4.81823 5.46801 6.48017 4.14576 8.30304 3.15345Z" fill="#F5F5F5"/>
<path d="M23.697 3.15343C25.5199 4.14574 27.1818 5.46806 28.646 7.09337C29.0008 6.12893 29.3543 4.40568 29.0461 1.64374C28.5977 1.61731 27.9543 1.61493 27.2213 1.72049C25.8637 1.91587 24.6833 2.39674 23.697 3.15343Z" fill="#F5F5F5"/>
<path d="M32 20.43C32 16.1144 30.2792 11.721 27.2788 8.37666C25.7866 6.71341 24.0718 5.40248 22.1817 4.4801C20.2023 3.51416 18.1225 3.02441 16 3.02441C13.8775 3.02441 11.7977 3.51416 9.81831 4.4801C7.92831 5.40241 6.21338 6.71341 4.72119 8.37666C1.72081 11.721 0 16.1143 0 20.43C0 24.6176 2.838 28.2488 6.90156 29.2605C12.8538 30.7424 19.1462 30.7424 25.0984 29.2605C29.162 28.2488 32 24.6176 32 20.43ZM18.4598 27.8937H13.5401C8.95419 27.8937 5.22325 24.1627 5.22325 19.5767C5.22325 14.9908 8.95419 11.2599 13.5401 11.2599H18.4598C23.0457 11.2599 26.7767 14.9908 26.7767 19.5767C26.7768 24.1627 23.0457 27.8937 18.4598 27.8937Z" fill="#F5F5F5"/>
<path d="M8.5752 23.6768C9.7577 25.1063 11.5444 26.0186 13.5402 26.0186H18.4599C20.4557 26.0186 22.2423 25.1062 23.4249 23.6768H8.5752Z" fill="#F5F5F5"/>
<path d="M18.4598 13.1348H13.5401C9.98808 13.1348 7.09827 16.0246 7.09827 19.5766C7.09827 20.3583 7.23833 21.1079 7.49452 21.8018H24.5055C24.7616 21.108 24.9017 20.3584 24.9017 19.5766C24.9018 16.0246 22.0119 13.1348 18.4598 13.1348Z" fill="#F5F5F5"/>
</g>
<defs>
<clipPath id="clip0_5790_479">
<rect width="32" height="32" fill="white"/>
</clipPath>
</defs>
</svg>
