<svg width="44" height="44" viewBox="0 0 44 44" fill="none" xmlns="http://www.w3.org/2000/svg">
<path fill-rule="evenodd" clip-rule="evenodd" d="M22 42.501C33.3218 42.501 42.5 33.3228 42.5 22.001C42.5 10.6791 33.3218 1.50098 22 1.50098C10.6782 1.50098 1.5 10.6791 1.5 22.001C1.5 33.3228 10.6782 42.501 22 42.501ZM22 44.001C34.1503 44.001 44 34.1512 44 22.001C44 9.85071 34.1503 0.000976562 22 0.000976562C9.84974 0.000976562 0 9.85071 0 22.001C0 34.1512 9.84974 44.001 22 44.001ZM22 39.501C31.665 39.501 39.5 31.666 39.5 22.001C39.5 12.336 31.665 4.50098 22 4.50098C12.335 4.50098 4.5 12.336 4.5 22.001C4.5 31.666 12.335 39.501 22 39.501ZM22 41.001C32.4934 41.001 41 32.4944 41 22.001C41 11.5076 32.4934 3.00098 22 3.00098C11.5066 3.00098 3 11.5076 3 22.001C3 32.4944 11.5066 41.001 22 41.001ZM16.5931 16.3441C16.886 16.0512 17.3609 16.0512 17.6538 16.3441L21.5429 20.2332C21.9334 20.6237 22.5666 20.6237 22.9571 20.2332L26.8462 16.3441C27.1391 16.0512 27.6139 16.0512 27.9068 16.3441C28.1997 16.637 28.1997 17.1119 27.9068 17.4048L24.0178 21.2939C23.6272 21.6844 23.6272 22.3176 24.0178 22.7081L27.9068 26.5972C28.1997 26.8901 28.1997 27.3649 27.9068 27.6578C27.6139 27.9507 27.1391 27.9507 26.8462 27.6578L22.9571 23.7687C22.5666 23.3782 21.9334 23.3782 21.5429 23.7687L17.6538 27.6578C17.3609 27.9507 16.886 27.9507 16.5931 27.6578C16.3002 27.3649 16.3002 26.8901 16.5931 26.5972L20.4822 22.7081C20.8727 22.3176 20.8727 21.6844 20.4822 21.2939L16.5931 17.4048C16.3002 17.1119 16.3002 16.637 16.5931 16.3441Z" fill="#929292"/>
</svg>
