<svg width="16" height="16" viewBox="0 0 16 16" fill="none" xmlns="http://www.w3.org/2000/svg">
<g clip-path="url(#clip0_2720_2152)">
<path d="M14.5 4H14V3.5C14 2.67156 13.3284 2 12.5 2H12V1.5C12 0.671562 11.3284 0 10.5 0H1.5C0.671562 0 0 0.671562 0 1.5V10.5C0 11.3284 0.671562 12 1.5 12H2V12.5C2 13.3284 2.67156 14 3.5 14H4V14.5C4 15.3284 4.67156 16 5.5 16H14.5C15.3284 16 16 15.3284 16 14.5V5.5C16 4.67156 15.3284 4 14.5 4ZM1.5 11C1.22384 11 1 10.7762 1 10.5V1.5C1 1.22384 1.22384 1 1.5 1H10.5C10.7762 1 11 1.22384 11 1.5V10.5C11 10.7762 10.7762 11 10.5 11H1.5ZM3.5 13C3.22384 13 3 12.7762 3 12.5V12H10.5C11.3284 12 12 11.3284 12 10.5V3H12.5C12.7762 3 13 3.22384 13 3.5V12.5C13 12.7762 12.7762 13 12.5 13H3.5ZM15 14.5C15 14.7762 14.7762 15 14.5 15H5.5C5.22384 15 5 14.7762 5 14.5V14H12.5C13.3284 14 14 13.3284 14 12.5V5H14.5C14.7762 5 15 5.22384 15 5.5V14.5Z" fill="#929292"/>
</g>
<defs>
<clipPath id="clip0_2720_2152">
<rect width="16" height="16" fill="white"/>
</clipPath>
</defs>
</svg>
