<svg width="17" height="16" viewBox="0 0 17 16" fill="none" xmlns="http://www.w3.org/2000/svg">
<path fill-rule="evenodd" clip-rule="evenodd" d="M1.83464 1.33301C1.65782 1.33301 1.48826 1.40325 1.36323 1.52827C1.23821 1.65329 1.16797 1.82286 1.16797 1.99967V11.333C1.16797 12.2357 1.76597 12.9983 2.5873 13.2477C2.70957 13.651 2.95613 14.0054 3.29179 14.2603C3.62744 14.5152 4.03504 14.6575 4.45639 14.667C4.87774 14.6764 5.29131 14.5525 5.63807 14.313C5.98483 14.0734 6.24705 13.7304 6.3873 13.333H10.6153C10.7556 13.7304 11.0178 14.0734 11.3645 14.313C11.7113 14.5525 12.1249 14.6764 12.5462 14.667C12.9676 14.6575 13.3752 14.5152 13.7108 14.2603C14.0465 14.0054 14.293 13.651 14.4153 13.2477C14.826 13.1231 15.1857 12.8696 15.4413 12.5249C15.6969 12.1801 15.8348 11.7622 15.8346 11.333V8.66634C15.8346 8.2286 15.7484 7.79515 15.5809 7.39073C15.4134 6.98631 15.1679 6.61885 14.8583 6.30932C14.5488 5.99979 14.1813 5.75426 13.7769 5.58674C13.3725 5.41923 12.939 5.33301 12.5013 5.33301H9.83464V1.99967C9.83464 1.82286 9.7644 1.65329 9.63937 1.52827C9.51435 1.40325 9.34478 1.33301 9.16797 1.33301H1.83464ZM10.6153 11.9997H9.83464V6.66634H12.5013C13.0317 6.66634 13.5404 6.87705 13.9155 7.25213C14.2906 7.6272 14.5013 8.13591 14.5013 8.66634V11.333C14.5013 11.5098 14.431 11.6793 14.306 11.8043C14.1355 11.4473 13.863 11.1488 13.5229 10.9467C13.1828 10.7445 12.7904 10.6478 12.3954 10.6687C12.0003 10.6896 11.6203 10.8272 11.3034 11.0642C10.9866 11.3011 10.7471 11.6266 10.6153 11.9997ZM4.02997 12.195C4.09147 12.1313 4.16503 12.0805 4.24637 12.0456C4.3277 12.0107 4.41518 11.9923 4.5037 11.9915C4.59222 11.9907 4.68001 12.0076 4.76194 12.0411C4.84387 12.0746 4.9183 12.1242 4.9809 12.1867C5.04349 12.2493 5.093 12.3238 5.12652 12.4057C5.16004 12.4876 5.17691 12.5754 5.17614 12.6639C5.17537 12.7525 5.15698 12.8399 5.12204 12.9213C5.0871 13.0026 5.03631 13.0762 4.97264 13.1377C4.8469 13.2591 4.6785 13.3263 4.5037 13.3248C4.3289 13.3233 4.1617 13.2532 4.03809 13.1296C3.91448 13.0059 3.84437 12.8387 3.84285 12.6639C3.84133 12.4891 3.90853 12.3207 4.02997 12.195ZM11.8346 12.6663C11.8346 12.4895 11.9049 12.32 12.0299 12.1949C12.1549 12.0699 12.3245 11.9997 12.5013 11.9997C12.6781 11.9997 12.8477 12.0699 12.9727 12.1949C13.0977 12.32 13.168 12.4895 13.168 12.6663C13.168 12.8432 13.0977 13.0127 12.9727 13.1377C12.8477 13.2628 12.6781 13.333 12.5013 13.333C12.3245 13.333 12.1549 13.2628 12.0299 13.1377C11.9049 13.0127 11.8346 12.8432 11.8346 12.6663Z" fill="#282827"/>
</svg>