<svg width="44" height="44" viewBox="0 0 44 44" fill="none" xmlns="http://www.w3.org/2000/svg">
<path d="M43.5946 34.545L34.6399 30.0677L40.6613 27.057C40.6908 27.0374 40.7188 27.0156 40.7449 26.9917C40.7894 26.9642 40.8307 26.932 40.8682 26.8956C40.9232 26.8205 40.9723 26.7412 41.0148 26.6585C41.0309 26.608 41.0413 26.556 41.0461 26.5033C41.0555 26.4697 41.0624 26.4355 41.0667 26.401V5.86768C41.0666 5.61356 40.935 5.37758 40.7188 5.24403C40.5027 5.1104 40.2328 5.0982 40.0054 5.21172L33.251 8.58889L27.7435 0.327547C27.5382 0.0199762 27.1361 -0.0868441 26.8053 0.0783278L21.2666 2.84766L17.1946 0.811718C17.1785 0.80364 17.161 0.804929 17.1446 0.79814C16.9653 0.730851 16.7675 0.730937 16.5883 0.798312C16.572 0.805015 16.5547 0.803726 16.5387 0.811718L0.405367 8.87833C0.363773 8.90127 0.3245 8.92834 0.288234 8.95902C0.275859 8.96856 0.262109 8.97475 0.250336 8.98515C0.186227 9.04247 0.132859 9.1107 0.0926407 9.18676C0.0885157 9.19423 0.081211 9.19862 0.0773438 9.20635C0.0710703 9.21881 0.0722735 9.23248 0.0668594 9.24511C0.0391016 9.30922 0.020711 9.37702 0.012375 9.44637C0.00988285 9.467 0.00455472 9.48668 0.00386722 9.5073C0.00343754 9.5165 3.52795e-08 9.52509 3.52795e-08 9.53437V30.0677C-8.59022e-05 30.3454 0.156836 30.5995 0.405367 30.7236L8.0667 34.5543V38.1343C8.06661 38.3288 8.14387 38.5153 8.28145 38.6529C8.41895 38.7904 8.60552 38.8677 8.80009 38.8677H16.6934L26.8054 43.9236C27.0119 44.0268 27.2548 44.0268 27.4613 43.9236L43.5946 35.8569C43.8431 35.7327 44 35.4787 44 35.201C44 34.9232 43.8431 34.6693 43.5946 34.545ZM33.7333 9.98769L39.6 7.0543V25.9477L33.7333 28.881V9.98769ZM16.8667 2.28761L19.6268 3.66759L10.6721 8.14494C10.4839 8.23895 10.3451 8.40928 10.2911 8.61261C10.2371 8.81594 10.2731 9.03267 10.3899 9.20773L14.7248 15.71L2.37334 9.53437L16.8667 2.28761ZM8.28137 17.0824C8.14387 17.2199 8.06661 17.4065 8.06661 17.6011V32.9144L1.46661 29.6144V10.7211L13.76 16.8678H8.8C8.60552 16.8676 8.41895 16.9449 8.28137 17.0824ZM16.1333 37.401H9.5333V18.3344H16.1333V37.401ZM12.0707 9.08535L26.882 1.67969L31.929 9.24992L17.1177 16.6556L12.0707 9.08535ZM32.2667 10.721V28.8811L17.6 21.5477V18.0543L32.2667 10.721ZM17.6 23.1877L31.3601 30.0677L17.6 36.9477V23.1877ZM27.1333 42.4477L18.5063 38.1341L33 30.8877L41.6267 35.201L27.1333 42.4477Z" fill="#929292"/>
</svg>
